<?xml version="1.0" encoding="UTF-8"?> <svg xmlns="http://www.w3.org/2000/svg" id="OutlineExpand" height="94" viewBox="0 0 64 64" width="94"><style>path { fill: #fff;}</style><path d="m14.028 40.051c-6.71.726-8.796 8.968-9.01 14.07-1.45.352-3.018 1.503-3.018 3.879 0 1.494.649 4 5 4h50c4.351 0 5-2.506 5-4 0-2.376-1.568-3.527-3.019-3.879-.214-5.102-2.3-13.344-9.01-14.07-.4-6.553-4.944-9.219-8.543-10.305.357-.492.572-1.093.572-1.746 0-.768-.29-1.469-.766-2 .476-.531.766-1.232.766-2s-.29-1.469-.766-2c.476-.531.766-1.232.766-2s-.29-1.469-.766-2c.476-.531.766-1.232.766-2 0-1.654-1.346-3-3-3h-.573l3.512-9.658c.112-.307.066-.648-.12-.916-.187-.267-.493-.426-.819-.426h-18c-.326 0-.632.159-.819.426s-.232.609-.12.916l.967 2.658h-1.028c-.553 0-1 .448-1 1v6h-18c-.553 0-1 .448-1 1v16c0 .552.447 1 1 1h15 1.58c-2.74 1.536-5.258 4.25-5.552 9.051zm25.544-36.051-3.272 9h-8.3v-3c0-1.773-1.167-3.262-2.767-3.785l-.805-2.215zm-35.572 11h8v14h-8zm10 0h3v14h-3zm5 14v-14h3c.553 0 1-.448 1-1v-6h1c1.103 0 2 .897 2 2v4c0 .552.447 1 1 1h10 2c.552 0 1 .449 1 1s-.448 1-1 1c-.553 0-1 .448-1 1s.447 1 1 1c.552 0 1 .449 1 1s-.448 1-1 1c-.553 0-1 .448-1 1s.447 1 1 1c.552 0 1 .449 1 1s-.448 1-1 1c-.553 0-1 .448-1 1s.447 1 1 1c.552 0 1 .449 1 1s-.448 1-1 1h-2-10zm8.002 2h9.996c.449.001 11.002.146 11.002 10 0 .552.447 1 1 1 6.586 0 7.75 8.958 7.956 12h-2.956v2h4c.334 0 2 .096 2 2 0 1.42-.869 2-3 2h-50c-2.131 0-3-.58-3-2 0-1.827 1.536-1.993 2-2 .552 0 .999-.448 1-1 0-.13.107-13 8-13 .553 0 1-.448 1-1 0-9.854 10.553-9.999 11.002-10z"></path><path d="m50 54h2v2h-2z"></path><path d="m33 50h-2c-.552 0-1-.449-1-1h-2c0 1.654 1.346 3 3 3v1h2v-1c1.654 0 3-1.346 3-3v-1c0-1.654-1.346-3-3-3h-2c-.552 0-1-.449-1-1v-1c0-.551.448-1 1-1h2c.552 0 1 .449 1 1h2c0-1.654-1.346-3-3-3v-1h-2v1c-1.654 0-3 1.346-3 3v1c0 1.654 1.346 3 3 3h2c.552 0 1 .449 1 1v1c0 .551-.448 1-1 1z"></path><path d="m32 57c6.065 0 11-4.935 11-11s-4.935-11-11-11-11 4.935-11 11 4.935 11 11 11zm0-20c4.963 0 9 4.038 9 9s-4.037 9-9 9-9-4.038-9-9 4.037-9 9-9z"></path></svg> 