<svg width="83" height="71" viewBox="0 0 83 71" fill="none" xmlns="http://www.w3.org/2000/svg">
<path d="M0 0H53C69.5685 0 83 13.4315 83 30V71H30C13.4315 71 0 57.5685 0 41V0Z" fill="url(#paint0_linear)"/>
<path d="M62.4731 54.9406C61.3515 56.2517 59.717 57.2691 57.5696 57.9929C55.4222 58.703 53.0422 59.0376 50.4298 58.9967C47.9267 58.9693 45.8135 58.3411 44.0901 57.112C42.3667 55.8829 41.1357 54.169 40.3971 51.9703C39.6585 49.7716 39.4602 47.2929 39.8021 44.5343L39.9663 43.3052C40.5954 38.6755 42.2231 35.0087 44.8492 32.3047C47.489 29.6007 50.717 28.2828 54.5331 28.3511C57.8705 28.4057 60.4351 29.3003 62.2269 31.0346C64.0187 32.769 65.0172 35.275 65.2223 38.5526L58.4928 38.5322C58.3971 36.9343 58.0004 35.7667 57.3029 35.0292C56.619 34.2918 55.641 33.9025 54.369 33.8616C52.4814 33.7933 50.9222 34.5376 49.6912 36.0944C48.4602 37.6376 47.619 39.85 47.1676 42.7316C46.7846 45.1898 46.6479 47.1017 46.7573 48.4674C46.9625 51.7586 48.4465 53.4247 51.2094 53.4657C52.8781 53.493 54.3416 53.0901 55.6 52.2571L56.5232 47.607H51.6608L52.5225 42.6701H64.4017L62.4731 54.9406Z" fill="white"/>
<path d="M30.2796 12L33.1315 32.6898L43.1436 12H52.4992L47.329 41.8261H40.2713L41.5433 34.513L44.5798 21.0339L34.1163 41.8261H29.459L26.0737 20.2554L24.1862 35.2095L23.0167 41.8261H16L21.1702 12H30.2796Z" fill="white"/>
<path d="M54.9334 26.4966L54.493 28.2574C54.4018 28.4699 54.4977 28.7147 54.7071 28.8043L62.9176 32.3147C63.1271 32.4042 63.3707 32.3045 63.4618 32.092L64.4342 30.5587L54.9334 26.4966Z" fill="white"/>
<path d="M67.889 27.1586C68.183 26.4731 67.8726 25.6804 67.1971 25.3916C66.5216 25.1027 65.7329 25.4255 65.4389 26.1111C65.2975 26.4406 65.2961 26.7948 65.4077 27.1061C64.8601 27.3667 64.2122 27.4019 63.6175 27.1477C62.6548 26.7361 62.1447 25.7007 62.3436 24.6988C62.6656 24.5696 62.9397 24.3163 63.088 23.9706C63.382 23.285 63.0716 22.4923 62.3961 22.2035C61.7205 21.9147 60.9317 22.2374 60.6377 22.9229C60.4895 23.2686 60.4952 23.6416 60.6236 23.9634C60.0346 24.7985 58.9321 25.1444 57.9694 24.7328C57.3747 24.4786 56.9531 23.9861 56.7642 23.4105C57.0668 23.2764 57.3227 23.031 57.464 22.7014C57.758 22.0159 57.4476 21.2232 56.7721 20.9343C56.0965 20.6455 55.3077 20.9683 55.0137 21.6538C54.7589 22.2479 54.9583 22.9222 55.4557 23.2795C55.1738 24.2367 54.9081 25.4361 54.9334 26.4966L64.4342 30.5587C65.2203 29.8451 65.9063 28.8254 66.4056 27.9612C67.0079 28.0739 67.6342 27.7527 67.889 27.1586Z" fill="white"/>
<defs>
<linearGradient id="paint0_linear" x1="0" y1="0" x2="76.907" y2="77.0794" gradientUnits="userSpaceOnUse">
<stop stop-color="#FF2053"/>
<stop offset="1" stop-color="#FF3F00"/>
</linearGradient>
</defs>
</svg>
