<svg width="94" height="94" viewBox="0 0 94 94" fill="none" xmlns="http://www.w3.org/2000/svg">
<path fill-rule="evenodd" clip-rule="evenodd" d="M72.8039 9.17969H69.5344C68.5369 9.17969 67.6061 8.61734 67.1053 7.71222C64.4341 2.88316 56.9181 0 47 0C37.0819 0 29.566 2.88316 26.8947 7.71204C26.3939 8.61734 25.4631 9.17969 24.4656 9.17969H21.1961C15.6064 9.17969 11.0588 13.7095 11.0588 19.2773H82.9412C82.9412 13.7095 78.3936 9.17969 72.8039 9.17969ZM39.6275 13.7695C38.1006 13.7695 36.8627 12.5365 36.8627 11.0156C36.8627 9.49473 38.1006 8.26172 39.6275 8.26172H54.3726C55.8994 8.26172 57.1373 9.49473 57.1373 11.0156C57.1373 12.5365 55.8994 13.7695 54.3726 13.7695H39.6275Z" fill="white"/>
<path fill-rule="evenodd" clip-rule="evenodd" d="M0 41.3086V79.8633H27.6471V41.3086H0ZM21.1961 65.6348C21.1961 69.6841 17.8888 72.9785 13.8235 72.9785C10.166 72.9785 7.02696 70.2604 6.52213 66.6561C6.47494 66.3192 6.45098 65.9757 6.45098 65.6348C6.45098 64.3672 7.48258 63.3398 8.7549 63.3398C10.0272 63.3398 11.0588 64.3672 11.0588 65.6348C11.0588 65.7644 11.0679 65.8946 11.0857 66.022C11.2747 67.3712 12.4519 68.3887 13.8235 68.3887C15.348 68.3887 16.5882 67.1533 16.5882 65.6348C16.5882 64.1163 15.348 62.8809 13.8235 62.8809C12.5512 62.8809 11.5196 61.8535 11.5196 60.5859C11.5196 59.3184 12.5512 58.291 13.8235 58.291C15.348 58.291 16.5882 57.0556 16.5882 55.5371C16.5882 54.0186 15.348 52.7832 13.8235 52.7832C12.5051 52.7832 11.364 53.7159 11.1108 55.0008C10.8657 56.2445 9.65325 57.0547 8.40618 56.8105C7.15764 56.5663 6.34408 55.3601 6.5894 54.1165C7.26602 50.6844 10.3083 48.1934 13.8235 48.1934C17.8888 48.1934 21.1961 51.4878 21.1961 55.5371C21.1961 57.4916 20.4242 59.2688 19.1697 60.5859C20.4242 61.903 21.1961 63.6802 21.1961 65.6348Z" fill="white"/>
<path fill-rule="evenodd" clip-rule="evenodd" d="M33.1765 41.3086H60.8235V79.8633H33.1765V41.3086ZM47 72.9785C51.0652 72.9785 54.3726 69.6841 54.3726 65.6348C54.3726 63.6802 53.6006 61.903 52.3462 60.5859C53.6006 59.2688 54.3726 57.4916 54.3726 55.5371C54.3726 51.4878 51.0652 48.1934 47 48.1934C43.4848 48.1934 40.4425 50.6844 39.7659 54.1165C39.5206 55.3601 40.3341 56.5663 41.5827 56.8105C42.8301 57.0547 44.0421 56.2445 44.2873 55.0008C44.5405 53.7159 45.6816 52.7832 47 52.7832C48.5245 52.7832 49.7647 54.0186 49.7647 55.5371C49.7647 57.0556 48.5245 58.291 47 58.291C45.7277 58.291 44.6961 59.3184 44.6961 60.5859C44.6961 61.8535 45.7277 62.8809 47 62.8809C48.5245 62.8809 49.7647 64.1163 49.7647 65.6348C49.7647 67.1533 48.5245 68.3887 47 68.3887C45.6283 68.3887 44.4511 67.3712 44.2622 66.022C44.2443 65.8946 44.2353 65.7644 44.2353 65.6348C44.2353 64.3672 43.2037 63.3398 41.9314 63.3398C40.6591 63.3398 39.6275 64.3672 39.6275 65.6348C39.6275 65.9757 39.6514 66.3192 39.6986 66.6561C40.2034 70.2604 43.3425 72.9785 47 72.9785Z" fill="white"/>
<path fill-rule="evenodd" clip-rule="evenodd" d="M94 41.3086V79.8633H66.3529V41.3086H94ZM80.1765 72.9785C84.2417 72.9785 87.549 69.6841 87.549 65.6348C87.549 63.6802 86.7771 61.903 85.5227 60.5859C86.7771 59.2688 87.549 57.4916 87.549 55.5371C87.549 51.4878 84.2417 48.1934 80.1765 48.1934C76.6612 48.1934 73.619 50.6844 72.9423 54.1165C72.697 55.3601 73.5106 56.5663 74.7591 56.8105C76.0062 57.0547 77.2186 56.2445 77.4637 55.0008C77.717 53.7159 78.8581 52.7832 80.1765 52.7832C81.7009 52.7832 82.9412 54.0186 82.9412 55.5371C82.9412 57.0556 81.7009 58.291 80.1765 58.291C78.9042 58.291 77.8726 59.3184 77.8726 60.5859C77.8726 61.8535 78.9042 62.8809 80.1765 62.8809C81.7009 62.8809 82.9412 64.1163 82.9412 65.6348C82.9412 67.1533 81.7009 68.3887 80.1765 68.3887C78.8048 68.3887 77.6276 67.3712 77.4387 66.022C77.4208 65.8946 77.4118 65.7644 77.4118 65.6348C77.4118 64.3672 76.3802 63.3398 75.1078 63.3398C73.8355 63.3398 72.8039 64.3672 72.8039 65.6348C72.8039 65.9757 72.8279 66.3192 72.8751 66.6561C73.3799 70.2604 76.519 72.9785 80.1765 72.9785Z" fill="white"/>
<path d="M0 91.2461V85.3711H94V91.2461C94 92.767 92.7622 94 91.2353 94H2.76471C1.23785 94 0 92.767 0 91.2461Z" fill="white"/>
<path d="M94 34.8828V35.8008H0V34.8828C0 29.315 4.54757 24.7852 10.1373 24.7852H83.8627C89.4524 24.7852 94 29.315 94 34.8828Z" fill="white"/>
</svg>
