<svg width="94" height="88" viewBox="0 0 94 88" fill="none" xmlns="http://www.w3.org/2000/svg">
<path d="M29.0493 41.4219H44.2461V25.8672H31.1619C29.9434 30.6553 29.2217 35.9265 29.0493 41.4219Z" fill="white"/>
<path d="M49.7539 41.4219H64.9507C64.7783 35.9265 64.0566 30.6553 62.8381 25.8672H49.7539V41.4219Z" fill="white"/>
<path d="M70.4605 41.4219H93.9187C93.5845 35.9813 92.1973 30.7273 89.8477 25.8672H68.4832C69.6241 30.722 70.298 35.9803 70.4605 41.4219Z" fill="white"/>
<path d="M25.5168 25.8672H4.15234C1.80289 30.7273 0.415471 35.9813 0.0813308 41.4219H23.5395C23.702 35.9803 24.3759 30.722 25.5168 25.8672Z" fill="white"/>
<path d="M44.2461 5.66724C40.8252 6.9245 37.4979 10.4653 34.8237 15.8048C34.0554 17.3389 33.359 18.9807 32.7353 20.7109H44.2461V5.66724Z" fill="white"/>
<path d="M29.8369 13.6158C34.2345 4.83553 40.3297 0 47 0C34.4459 0 22.6432 4.57686 13.7659 12.8872C11.2066 15.2833 8.98086 17.9082 7.106 20.7109H26.9547C27.7785 18.1827 28.7411 15.8039 29.8369 13.6158Z" fill="white"/>
<path d="M64.1631 13.6158C65.2589 15.8037 66.2214 18.1827 67.0451 20.7109H86.8938C85.019 17.9082 82.7933 15.2833 80.2338 12.8872C71.3568 4.57686 59.5541 0 47 0C53.6701 0 59.7655 4.83553 64.1631 13.6158Z" fill="white"/>
<path d="M49.7539 5.66724V20.7109H61.2647C60.641 18.9807 59.9446 17.3389 59.1763 15.8048C56.5021 10.4655 53.175 6.92468 49.7539 5.66724Z" fill="white"/>
<path d="M0 46.5781V85.4219C0 86.8457 1.23302 88 2.75391 88H91.2461C92.767 88 94 86.8457 94 85.4219V46.5781H0ZM25.2208 76.8948C24.163 77.204 23.0498 76.8226 22.3845 75.9229L15.4156 66.4757V75.0236C15.4156 76.2101 14.3882 77.1721 13.1207 77.1721C11.8534 77.1721 10.8258 76.2101 10.8258 75.0236V59.5839C10.8258 58.6436 11.4788 57.8126 12.4377 57.5327C13.3965 57.2526 14.4382 57.5893 15.0092 58.3631L22.3402 68.3014L22.2501 59.5757C22.2378 58.3892 23.2555 57.4181 24.5228 57.4066H24.5454C25.8026 57.4066 26.8276 58.3548 26.8398 59.5342L26.9942 74.4817V74.5025C26.9943 75.6406 26.2982 76.5798 25.2208 76.8948ZM38.9522 65.141C40.2195 65.141 41.2471 66.1028 41.2471 67.2894C41.2471 68.476 40.2195 69.4378 38.9522 69.4378H34.7982V72.8753H39.4655C40.7328 72.8753 41.7604 73.8373 41.7604 75.0238C41.7604 76.2102 40.7328 77.1722 39.4655 77.1722H32.5033C31.2357 77.1722 30.2083 76.2102 30.2083 75.0238V59.555C30.2083 58.3686 31.2357 57.4066 32.5033 57.4066H39.4655C40.7328 57.4066 41.7604 58.3686 41.7604 59.555C41.7604 60.7415 40.7328 61.7035 39.4655 61.7035H34.7982V65.141H38.9522ZM66.8303 60.0028L63.5982 75.2063C63.5785 75.2986 63.5524 75.3897 63.5199 75.4787C63.1546 76.4845 62.1469 77.165 61.0121 77.1721C61.0062 77.1721 61.0001 77.1721 60.9941 77.1721C59.8666 77.1721 58.858 76.506 58.4803 75.5104C58.4693 75.4817 58.4594 75.4529 58.4496 75.4239L55.6285 66.851L52.7946 75.4222C52.7883 75.4411 52.7817 75.46 52.7749 75.4787C52.4098 76.4842 51.402 77.1647 50.2678 77.1721C50.2615 77.1721 50.2555 77.1721 50.2491 77.1721C49.122 77.1721 48.1135 76.5066 47.7355 75.5112C47.698 75.4124 47.6683 75.311 47.6464 75.208L44.4273 59.9717C44.1813 58.8077 44.9898 57.6775 46.2333 57.4472C47.4762 57.2168 48.6839 57.9738 48.9299 59.1379L50.6627 67.3387L53.3909 59.087C53.5651 58.3593 54.1379 57.7366 54.9538 57.5015C56.165 57.1519 57.4494 57.7882 57.8227 58.9222L60.5916 67.3368L62.3292 59.1638C62.5766 58.0001 63.7847 57.245 65.028 57.476C66.2706 57.7079 67.0776 58.8392 66.8303 60.0028ZM83.396 72.049C82.8298 75.0176 79.8108 77.1722 76.2171 77.1722C73.3217 77.1722 70.6032 76.0793 68.7584 74.1735C67.9073 73.2942 67.9787 71.9355 68.918 71.1389C69.8572 70.3422 71.3084 70.4091 72.1595 71.2882C73.1215 72.282 74.6384 72.8753 76.2171 72.8753C77.6936 72.8753 78.7294 72.0711 78.8776 71.2936C79.0718 70.2759 77.3805 69.6075 76.8575 69.427C74.2879 68.5396 72.0056 67.5886 71.9098 67.5486C71.7991 67.5024 71.6928 67.4482 71.5915 67.3863C69.7737 66.2767 68.837 64.3313 69.1473 62.3088C69.4768 60.159 71.1523 58.4088 73.5198 57.7411C77.8891 56.5084 81.5254 59.055 82.0567 59.4526C82.5946 59.8458 82.9416 60.457 82.9416 61.1454C82.9416 62.3318 81.9142 63.2938 80.6467 63.2938C80.0834 63.2938 79.5681 63.103 79.1684 62.7878L79.1664 62.7901L79.181 62.8014C79.1605 62.7856 77.0716 61.2267 74.8435 61.8554C73.9095 62.1189 73.7257 62.6873 73.6903 62.9195C73.6664 63.0743 73.6541 63.4411 73.9899 63.7111C74.6006 63.961 76.4561 64.7085 78.4459 65.3957C82.7479 66.881 83.8238 69.8065 83.396 72.049Z" fill="white"/>
</svg>
