<svg width="94" height="94" viewBox="0 0 94 94" fill="none" xmlns="http://www.w3.org/2000/svg">
<path d="M62.8625 44.9437L68.7362 39.6576L65.2112 33.7839L57.8674 36.4276C57.2812 35.8414 56.6924 35.5464 56.1036 34.9602L56.6885 27.3227L50.226 25.5602L46.701 32.6089C45.8197 32.6089 45.2335 32.9052 44.351 32.9052L39.0661 27.0302L33.1911 30.5552L35.8362 37.9003C35.25 38.4865 34.6612 39.0753 34.3687 39.6628L26.7312 39.0766L24.9687 45.5313L32.0187 49.0562C32.0187 49.9375 32.3125 50.5237 32.3125 51.4049L26.4388 56.6937L29.9638 62.5674L37.3075 59.9171C37.895 60.5059 38.4825 60.7997 39.0727 61.3872L38.4852 69.0247L44.9477 70.7872L48.4727 63.7359C49.3539 63.7359 49.9401 63.4434 50.8213 63.4434L56.1088 69.3171L61.9825 65.7921L59.045 58.7434C59.6312 58.1546 60.22 57.5684 60.5125 56.9809L68.15 57.5671L69.9125 51.1046L62.8638 47.577C63.1536 46.4138 62.8625 45.825 62.8625 44.9437ZM51.4049 54.9326C47.5875 56.9888 42.8862 55.8138 40.5362 51.9951C38.1862 48.1763 39.6536 43.4763 43.4724 41.125C47.2924 38.7763 51.9924 40.2437 54.3411 44.0625C56.3987 47.8812 54.9325 52.875 51.4049 54.9326Z" fill="white"/>
<path d="M85.1875 0H8.8125C3.81744 0 0 3.81875 0 8.8125V85.1888C0 90.1813 3.81744 94 8.8125 94H85.1875C90.1813 94 94 90.1813 94 85.1888V8.8125C94 4.1125 90.1813 0 85.1875 0ZM32.9 6.4625C34.6625 6.4625 36.425 7.93125 36.425 9.9875C36.425 12.0438 34.9562 13.5125 32.9 13.5125C31.1362 13.5125 29.375 12.0438 29.375 9.9875C29.375 7.93256 31.1362 6.4625 32.9 6.4625ZM23.2049 6.4625C24.9701 6.4625 26.7299 7.93125 26.7299 9.9875C26.7299 12.0438 25.2612 13.5125 23.2049 13.5125C21.1513 13.5125 19.6799 12.0438 19.6799 9.9875C19.6812 7.93256 21.15 6.4625 23.2049 6.4625ZM13.2188 6.4625C14.9812 6.4625 16.7437 7.93125 16.7437 9.9875C16.7437 12.0438 15.275 13.5125 13.2188 13.5125C11.1625 13.5125 9.69375 12.0438 9.69375 9.9875C9.69375 7.93256 11.4563 6.4625 13.2188 6.4625ZM83.7174 77.8424C83.7174 81.0763 81.0724 83.7174 77.8438 83.7174H16.1562C12.925 83.7174 10.2826 81.0737 10.2826 77.8424V24.9688C10.2826 21.7375 12.9263 19.0951 16.1562 19.0951H41.125C46.7063 19.0951 47 19.0951 47 16.1576C47 12.3388 49.6438 10.2839 52.8737 10.2839H77.8438C81.075 10.2839 83.7174 12.9276 83.7174 16.1576V77.8424Z" fill="white"/>
</svg>
