<svg width="100" height="94" viewBox="0 0 100 94" fill="none" xmlns="http://www.w3.org/2000/svg">
<path d="M36.6483 70.7087C36.1758 70.9049 35.6583 71.0144 35.1149 71.0144C32.903 71.0144 31.1098 69.2201 31.1098 67.0069C31.1098 66.4513 31.2231 65.9222 31.4274 65.4412C28.7993 62.3472 28.7342 57.8074 31.2327 54.6419C31.1553 54.3311 31.1098 54.0077 31.1098 53.6731C31.1098 53.368 31.1469 53.0721 31.2114 52.7866H26.6061C21.9059 52.7866 18.0821 48.9603 18.0821 44.2568V42.578H4.59805C2.0627 42.578 0 44.642 0 47.179V86.8346C0 89.3716 2.0627 91.4356 4.59805 91.4356H46.2571C48.7923 91.4356 50.855 89.3716 50.855 86.8346V84.9244L36.6483 70.7087ZM15.7401 84.3482C13.5281 84.3482 11.7352 82.5539 11.7352 80.3408C11.7352 78.1274 13.5283 76.3333 15.7401 76.3333C17.9518 76.3333 19.745 78.1274 19.745 80.3408C19.745 82.5539 17.952 84.3482 15.7401 84.3482ZM15.7401 71.0144C13.5281 71.0144 11.7352 69.2201 11.7352 67.0069C11.7352 64.7938 13.5283 62.9994 15.7401 62.9994C17.9518 62.9994 19.745 64.7938 19.745 67.0069C19.745 69.2201 17.952 71.0144 15.7401 71.0144ZM15.7401 57.6806C13.5281 57.6806 11.7352 55.8862 11.7352 53.6731C11.7352 51.4599 13.5283 49.6656 15.7401 49.6656C17.9518 49.6656 19.745 51.4599 19.745 53.6731C19.745 55.8862 17.952 57.6806 15.7401 57.6806ZM35.1149 84.3482C32.903 84.3482 31.1098 82.5539 31.1098 80.3408C31.1098 78.1274 32.9028 76.3333 35.1149 76.3333C37.3268 76.3333 39.1198 78.1274 39.1198 80.3408C39.1198 82.5539 37.3268 84.3482 35.1149 84.3482Z" fill="white"/>
<path d="M68.2653 0H26.6061C24.0709 0 22.0082 2.06403 22.0082 4.60103V44.2568C22.0082 46.7938 24.0711 48.8578 26.6063 48.8578H36.9272L59.9196 25.8505C63.2431 22.5251 68.6511 22.5248 71.9745 25.8505L72.8634 26.74V4.60103C72.8634 2.06403 70.8007 0 68.2653 0ZM38.477 39.3224C36.8409 40.9598 34.1881 40.9598 32.5518 39.3224C30.9157 37.6852 30.9157 35.0307 32.5518 33.3933C34.1881 31.7561 36.8409 31.7561 38.477 33.3933C40.1133 35.0305 40.1133 37.6852 38.477 39.3224ZM38.477 15.4645C36.8409 17.1017 34.1881 17.1017 32.5518 15.4645C30.9157 13.8271 30.9157 11.1727 32.5518 9.53548C34.1881 7.89828 36.8409 7.89828 38.477 9.53548C40.1133 11.1727 40.1133 13.8273 38.477 15.4645ZM50.3985 27.3935C48.7622 29.0307 46.1094 29.0307 44.4733 27.3935C42.837 25.7561 42.837 23.1017 44.4733 21.4645C46.1094 19.8273 48.7622 19.8273 50.3985 21.4645C52.0347 23.1017 52.0347 25.7563 50.3985 27.3935ZM62.3196 15.4645C60.6835 17.1017 58.0306 17.1017 56.3944 15.4645C54.7583 13.8273 54.7583 11.1727 56.3944 9.53548C58.0306 7.89828 60.6835 7.89828 62.3196 9.53548C63.956 11.1727 63.956 13.8273 62.3196 15.4645Z" fill="white"/>
<path d="M98.6554 58.105L69.1983 28.6285C68.3019 27.7314 67.1247 27.2831 65.9472 27.2831C64.7696 27.2831 63.5923 27.7314 62.696 28.6285L34.6731 56.6693C32.8801 58.4633 32.8801 61.3822 34.6731 63.1759L64.1306 92.6523C64.9989 93.5212 66.1534 94 67.3815 94C68.6099 94 69.7644 93.5214 70.6327 92.6524L98.6554 64.6114C100.448 62.8175 100.448 59.8988 98.6554 58.105ZM56.0464 62.4774C54.337 64.1879 51.5659 64.1879 49.8565 62.4774C48.1471 60.7669 48.1471 57.994 49.8565 56.2836C51.5659 54.5731 54.337 54.5731 56.0464 56.2836C57.7558 57.994 57.7558 60.7669 56.0464 62.4774ZM62.3103 43.8218C64.0196 42.1115 66.7909 42.1115 68.5001 43.8218C70.2093 45.5322 70.2093 48.3051 68.5001 50.0156C66.7907 51.7261 64.0196 51.7261 62.3103 50.0156C60.6009 48.3051 60.6009 45.5322 62.3103 43.8218ZM71.0187 77.4594C69.3093 79.1699 66.5382 79.1699 64.8288 77.4594C63.1194 75.7489 63.1194 72.976 64.8288 71.2655C66.5382 69.5552 69.3093 69.5552 71.0187 71.2655C72.7278 72.9758 72.7278 75.7489 71.0187 77.4594ZM83.4724 64.9976C81.763 66.7081 78.9919 66.7081 77.2825 64.9976C75.5732 63.2873 75.5732 60.5142 77.2825 58.8037C78.9919 57.0933 81.763 57.0933 83.4724 58.8037C85.1816 60.514 85.1816 63.2871 83.4724 64.9976Z" fill="white"/>
</svg>
