<svg width="26" height="26" viewBox="0 0 26 26" fill="none" xmlns="http://www.w3.org/2000/svg">
<path d="M13 0C5.83157 0 0 5.83157 0 13C0 20.1684 5.83157 26 13 26C20.1684 26 26 20.1684 26 13C26 5.83157 20.1684 0 13 0ZM21.4576 10.7196L16.8675 14.2891L18.3972 19.8997C18.4567 20.1174 18.3744 20.3493 18.1914 20.4814C18.0971 20.5486 17.9866 20.5833 17.8751 20.5833C17.77 20.5833 17.666 20.5529 17.575 20.4923L13 17.4428L8.42507 20.4923C8.23763 20.618 7.99175 20.6126 7.80757 20.4815C7.6245 20.3493 7.54213 20.1175 7.60175 19.8997L9.1325 14.2892L4.54243 10.7196C4.35937 10.5777 4.28787 10.3351 4.36262 10.1162C4.43732 9.89732 4.64425 9.75 4.875 9.75H10.4672L12.4974 4.6735C12.6621 4.26182 13.338 4.26182 13.5038 4.6735L15.5328 9.75H21.125C21.3557 9.75 21.5627 9.89732 21.6374 10.1162C21.7122 10.335 21.6407 10.5777 21.4576 10.7196Z" fill="url(#paint0_linear)"/>
<defs>
<linearGradient id="paint0_linear" x1="9.27919e-08" y1="13.2889" x2="26" y2="13.2889" gradientUnits="userSpaceOnUse">
<stop stop-color="#FF2053"/>
<stop offset="1" stop-color="#FF3F00"/>
</linearGradient>
</defs>
</svg>
