<svg width="15" height="15" viewBox="0 0 15 15" fill="none" xmlns="http://www.w3.org/2000/svg">
<path d="M10.4501 8.90098C12.2867 6.35839 11.6725 2.83767 9.07902 1.03751C6.48558 -0.762641 2.89443 -0.16087 1.05827 2.38214C-0.777896 4.92472 -0.164088 8.44502 2.42979 10.2452C4.28087 11.53 6.72821 11.629 8.68064 10.4985L12.9229 14.6326C13.3809 15.1054 14.1431 15.1243 14.6252 14.6752C15.1074 14.2266 15.1267 13.4794 14.6691 13.0067C14.6546 12.9916 14.6406 12.9779 14.6252 12.9637L10.4501 8.90098ZM5.75068 9.28639C3.70128 9.28682 2.03975 7.65915 2.03843 5.64995C2.03799 3.64074 3.69821 2.01179 5.74805 2.01093C7.79481 2.01007 9.45547 3.63515 9.45942 5.64177C9.46293 7.65141 7.80358 9.28294 5.75331 9.28639C5.75243 9.28639 5.75199 9.28639 5.75068 9.28639Z" fill="#162251"/>
</svg>
