<svg version="1.1" xmlns="http://www.w3.org/2000/svg" width="400" height="400" viewBox="0, 0, 400,400">
    <g>
        <path d="M194.400 11.600 C 194.400 11.820,193.860 12.000,193.200 12.000 C 192.400 12.000,192.000 12.200,192.000 12.600 C 192.000 12.973,191.622 13.200,191.000 13.200 C 190.450 13.200,190.000 13.393,190.000 13.629 C 190.000 14.182,188.982 15.200,188.429 15.200 C 188.193 15.200,188.000 15.470,188.000 15.800 C 188.000 16.130,187.773 16.400,187.496 16.400 C 186.821 16.400,185.810 18.027,185.943 18.900 C 186.007 19.314,185.795 19.600,185.425 19.600 C 185.025 19.600,184.800 19.960,184.800 20.600 C 184.800 21.222,184.573 21.600,184.200 21.600 C 183.827 21.600,183.600 21.978,183.600 22.600 C 183.600 23.150,183.420 23.600,183.200 23.600 C 182.980 23.600,182.800 24.140,182.800 24.800 C 182.800 25.547,182.611 25.962,182.300 25.900 C 182.019 25.844,181.745 26.281,181.673 26.900 C 181.601 27.530,181.302 28.000,180.973 28.000 C 180.628 28.000,180.400 28.398,180.400 29.000 C 180.400 29.550,180.220 30.000,180.000 30.000 C 179.780 30.000,179.600 30.450,179.600 31.000 C 179.600 31.622,179.373 32.000,179.000 32.000 C 178.605 32.000,178.400 32.395,178.400 33.157 C 178.400 33.811,178.142 34.413,177.807 34.542 C 177.446 34.680,177.313 35.030,177.469 35.434 C 177.625 35.842,177.468 36.242,177.062 36.469 C 176.698 36.673,176.400 37.191,176.400 37.620 C 176.400 38.049,176.130 38.400,175.800 38.400 C 175.427 38.400,175.200 38.778,175.200 39.400 C 175.200 39.950,175.020 40.400,174.800 40.400 C 174.580 40.400,174.400 40.940,174.400 41.600 C 174.400 42.400,174.200 42.800,173.800 42.800 C 173.427 42.800,173.200 43.178,173.200 43.800 C 173.200 44.422,172.973 44.800,172.600 44.800 C 172.227 44.800,172.000 45.178,172.000 45.800 C 172.000 46.350,171.820 46.800,171.600 46.800 C 171.380 46.800,171.200 47.250,171.200 47.800 C 171.200 48.422,170.973 48.800,170.600 48.800 C 170.200 48.800,170.000 49.200,170.000 50.000 C 170.000 50.800,169.800 51.200,169.400 51.200 C 169.027 51.200,168.800 51.578,168.800 52.200 C 168.800 52.750,168.620 53.200,168.400 53.200 C 168.180 53.200,168.000 53.650,168.000 54.200 C 168.000 54.750,167.768 55.200,167.485 55.200 C 167.202 55.200,166.942 55.574,166.908 56.032 C 166.873 56.490,166.610 57.147,166.322 57.493 C 166.035 57.840,165.856 58.455,165.925 58.861 C 166.002 59.318,165.811 59.600,165.425 59.600 C 165.025 59.600,164.800 59.960,164.800 60.600 C 164.800 61.222,164.573 61.600,164.200 61.600 C 163.827 61.600,163.600 61.978,163.600 62.600 C 163.600 63.150,163.420 63.600,163.200 63.600 C 162.980 63.600,162.800 64.140,162.800 64.800 C 162.800 65.547,162.611 65.962,162.300 65.900 C 162.019 65.844,161.745 66.281,161.673 66.900 C 161.601 67.530,161.302 68.000,160.973 68.000 C 160.628 68.000,160.400 68.398,160.400 69.000 C 160.400 69.550,160.220 70.000,160.000 70.000 C 159.780 70.000,159.600 70.450,159.600 71.000 C 159.600 71.622,159.373 72.000,159.000 72.000 C 158.605 72.000,158.400 72.395,158.400 73.157 C 158.400 73.811,158.142 74.413,157.807 74.542 C 157.446 74.680,157.313 75.030,157.469 75.434 C 157.625 75.842,157.468 76.242,157.062 76.469 C 156.698 76.673,156.400 77.191,156.400 77.620 C 156.400 78.049,156.130 78.400,155.800 78.400 C 155.427 78.400,155.200 78.778,155.200 79.400 C 155.200 79.950,155.020 80.400,154.800 80.400 C 154.580 80.400,154.400 80.940,154.400 81.600 C 154.400 82.400,154.200 82.800,153.800 82.800 C 153.427 82.800,153.200 83.178,153.200 83.800 C 153.200 84.422,152.973 84.800,152.600 84.800 C 152.227 84.800,152.000 85.178,152.000 85.800 C 152.000 86.350,151.820 86.800,151.600 86.800 C 151.380 86.800,151.200 87.250,151.200 87.800 C 151.200 88.422,150.973 88.800,150.600 88.800 C 150.200 88.800,150.000 89.200,150.000 90.000 C 150.000 90.800,149.800 91.200,149.400 91.200 C 149.027 91.200,148.800 91.578,148.800 92.200 C 148.800 92.750,148.620 93.200,148.400 93.200 C 148.180 93.200,148.000 93.650,148.000 94.200 C 148.000 94.750,147.768 95.200,147.485 95.200 C 147.202 95.200,146.942 95.574,146.908 96.032 C 146.873 96.490,146.610 97.147,146.322 97.493 C 146.035 97.840,145.856 98.455,145.925 98.861 C 146.002 99.318,145.811 99.600,145.425 99.600 C 145.025 99.600,144.800 99.960,144.800 100.600 C 144.800 101.222,144.573 101.600,144.200 101.600 C 143.827 101.600,143.600 101.978,143.600 102.600 C 143.600 103.150,143.420 103.600,143.200 103.600 C 142.980 103.600,142.800 104.140,142.800 104.800 C 142.800 105.547,142.611 105.962,142.300 105.900 C 142.019 105.844,141.745 106.281,141.673 106.900 C 141.601 107.530,141.302 108.000,140.973 108.000 C 140.628 108.000,140.400 108.398,140.400 109.000 C 140.400 109.550,140.220 110.000,140.000 110.000 C 139.780 110.000,139.600 110.450,139.600 111.000 C 139.600 111.622,139.373 112.000,139.000 112.000 C 138.605 112.000,138.400 112.395,138.400 113.157 C 138.400 113.811,138.142 114.413,137.807 114.542 C 137.460 114.675,137.315 115.033,137.457 115.404 C 137.591 115.754,137.424 116.254,137.084 116.519 C 136.745 116.784,136.397 117.360,136.310 117.800 C 136.223 118.240,135.938 118.555,135.676 118.500 C 135.408 118.444,135.200 118.837,135.200 119.400 C 135.200 119.950,135.020 120.400,134.800 120.400 C 134.580 120.400,134.400 120.670,134.400 121.000 C 134.400 121.483,133.778 121.600,131.200 121.600 C 128.622 121.600,128.000 121.717,128.000 122.200 C 128.000 122.691,127.311 122.800,124.200 122.800 C 121.933 122.800,120.400 122.961,120.400 123.200 C 120.400 123.431,119.133 123.600,117.400 123.600 C 115.000 123.600,114.400 123.720,114.400 124.200 C 114.400 124.691,113.711 124.800,110.600 124.800 C 107.432 124.800,106.800 124.903,106.800 125.421 C 106.800 125.936,106.272 126.028,103.720 125.961 C 101.687 125.907,100.588 126.036,100.487 126.339 C 100.386 126.641,99.101 126.800,96.767 126.800 C 93.863 126.800,93.200 126.912,93.200 127.400 C 93.200 127.883,92.578 128.000,90.000 128.000 C 88.133 128.000,86.800 128.167,86.800 128.400 C 86.800 128.637,85.333 128.800,83.200 128.800 C 80.267 128.800,79.600 128.911,79.600 129.400 C 79.600 129.883,78.978 130.000,76.400 130.000 C 73.822 130.000,73.200 130.117,73.200 130.600 C 73.200 131.089,72.536 131.200,69.624 131.200 C 67.657 131.200,65.936 131.380,65.800 131.600 C 65.664 131.820,64.213 132.000,62.576 132.000 C 60.197 132.000,59.600 132.120,59.600 132.600 C 59.600 133.091,58.911 133.200,55.800 133.200 C 52.689 133.200,52.000 133.309,52.000 133.800 C 52.000 134.280,51.403 134.400,49.024 134.400 C 47.387 134.400,45.936 134.580,45.800 134.800 C 45.664 135.020,43.943 135.200,41.976 135.200 C 39.064 135.200,38.400 135.311,38.400 135.800 C 38.400 136.283,37.778 136.400,35.200 136.400 C 32.558 136.400,32.000 136.510,32.000 137.028 C 32.000 137.563,31.460 137.638,28.399 137.528 C 25.716 137.433,24.798 137.527,24.799 137.900 C 24.800 138.317,20.384 138.713,18.700 138.447 C 18.535 138.421,18.445 138.625,18.500 138.900 C 18.572 139.260,17.679 139.432,15.300 139.516 C 13.485 139.580,12.000 139.805,12.000 140.016 C 12.000 140.227,11.364 140.400,10.587 140.400 C 9.701 140.400,9.089 140.623,8.945 141.000 C 8.818 141.330,8.273 141.600,7.734 141.600 C 7.194 141.600,6.857 141.768,6.983 141.973 C 7.110 142.178,6.671 142.667,6.007 143.059 C 5.343 143.452,4.800 144.004,4.800 144.286 C 4.800 144.569,4.595 144.800,4.344 144.800 C 3.672 144.800,2.827 146.068,2.813 147.100 C 2.805 147.628,2.552 148.000,2.200 148.000 C 1.767 148.000,1.600 148.444,1.600 149.600 C 1.600 150.756,1.433 151.200,1.000 151.200 C 0.114 151.200,0.114 159.115,1.000 159.455 C 1.391 159.605,1.600 160.228,1.600 161.243 C 1.600 162.360,1.769 162.800,2.200 162.800 C 2.540 162.800,2.800 163.159,2.800 163.629 C 2.800 164.514,3.666 165.600,4.371 165.600 C 4.607 165.600,4.800 165.870,4.800 166.200 C 4.800 166.530,5.070 166.800,5.400 166.800 C 5.730 166.800,6.000 166.993,6.000 167.229 C 6.000 167.782,7.018 168.800,7.571 168.800 C 7.807 168.800,8.000 168.994,8.000 169.231 C 8.000 169.791,10.209 172.000,10.769 172.000 C 11.006 172.000,11.200 172.194,11.200 172.431 C 11.200 172.991,13.409 175.200,13.969 175.200 C 14.206 175.200,14.400 175.393,14.400 175.629 C 14.400 176.182,15.418 177.200,15.971 177.200 C 16.207 177.200,16.400 177.394,16.400 177.631 C 16.400 178.191,18.609 180.400,19.169 180.400 C 19.406 180.400,19.600 180.594,19.600 180.831 C 19.600 181.391,21.809 183.600,22.369 183.600 C 22.606 183.600,22.800 183.793,22.800 184.029 C 22.800 184.582,23.818 185.600,24.371 185.600 C 24.607 185.600,24.800 185.870,24.800 186.200 C 24.800 186.530,25.070 186.800,25.400 186.800 C 25.730 186.800,26.000 186.993,26.000 187.229 C 26.000 187.782,27.018 188.800,27.571 188.800 C 27.807 188.800,28.000 188.994,28.000 189.231 C 28.000 189.791,30.209 192.000,30.769 192.000 C 31.006 192.000,31.200 192.194,31.200 192.431 C 31.200 192.991,33.409 195.200,33.969 195.200 C 34.206 195.200,34.400 195.393,34.400 195.629 C 34.400 196.182,35.418 197.200,35.971 197.200 C 36.207 197.200,36.400 197.394,36.400 197.631 C 36.400 198.191,38.609 200.400,39.169 200.400 C 39.406 200.400,39.600 200.594,39.600 200.831 C 39.600 201.391,41.809 203.600,42.369 203.600 C 42.606 203.600,42.800 203.793,42.800 204.029 C 42.800 204.582,43.818 205.600,44.371 205.600 C 44.607 205.600,44.800 205.870,44.800 206.200 C 44.800 206.530,45.070 206.800,45.400 206.800 C 45.730 206.800,46.000 206.993,46.000 207.229 C 46.000 207.782,47.018 208.800,47.571 208.800 C 47.807 208.800,48.000 208.994,48.000 209.231 C 48.000 209.791,50.209 212.000,50.769 212.000 C 51.006 212.000,51.200 212.194,51.200 212.431 C 51.200 212.991,53.409 215.200,53.969 215.200 C 54.206 215.200,54.400 215.393,54.400 215.629 C 54.400 216.182,55.418 217.200,55.971 217.200 C 56.207 217.200,56.400 217.394,56.400 217.631 C 56.400 218.191,58.609 220.400,59.169 220.400 C 59.406 220.400,59.600 220.594,59.600 220.831 C 59.600 221.391,61.809 223.600,62.369 223.600 C 62.606 223.600,62.800 223.793,62.800 224.029 C 62.800 224.582,63.818 225.600,64.371 225.600 C 64.607 225.600,64.800 225.870,64.800 226.200 C 64.800 226.530,65.070 226.800,65.400 226.800 C 65.730 226.800,66.000 226.993,66.000 227.229 C 66.000 227.782,67.018 228.800,67.571 228.800 C 67.807 228.800,68.000 228.994,68.000 229.231 C 68.000 229.791,70.209 232.000,70.769 232.000 C 71.006 232.000,71.200 232.194,71.200 232.431 C 71.200 232.991,73.409 235.200,73.969 235.200 C 74.206 235.200,74.400 235.393,74.400 235.629 C 74.400 236.182,75.418 237.200,75.971 237.200 C 76.207 237.200,76.400 237.394,76.400 237.631 C 76.400 238.191,78.609 240.400,79.169 240.400 C 79.406 240.400,79.600 240.594,79.600 240.831 C 79.600 241.391,81.809 243.600,82.369 243.600 C 82.606 243.600,82.800 243.793,82.800 244.029 C 82.800 244.582,83.818 245.600,84.371 245.600 C 84.607 245.600,84.800 245.870,84.800 246.200 C 84.800 246.530,85.070 246.800,85.400 246.800 C 85.730 246.800,86.000 246.993,86.000 247.229 C 86.000 247.782,87.018 248.800,87.571 248.800 C 87.807 248.800,88.000 249.070,88.000 249.400 C 88.000 249.730,88.180 250.000,88.400 250.000 C 88.620 250.000,88.800 250.450,88.800 251.000 C 88.800 251.550,88.620 252.000,88.400 252.000 C 88.161 252.000,88.000 253.533,88.000 255.800 C 88.000 258.911,87.891 259.600,87.400 259.600 C 86.921 259.600,86.800 260.191,86.800 262.520 C 86.800 264.178,86.602 265.638,86.342 265.898 C 86.056 266.184,85.916 267.636,85.967 269.778 C 86.036 272.648,85.949 273.200,85.425 273.200 C 84.910 273.200,84.800 273.766,84.800 276.400 C 84.800 278.978,84.683 279.600,84.200 279.600 C 83.711 279.600,83.600 280.267,83.600 283.200 C 83.600 285.333,83.437 286.800,83.200 286.800 C 82.967 286.800,82.800 288.133,82.800 290.000 C 82.800 292.578,82.683 293.200,82.200 293.200 C 81.712 293.200,81.600 293.862,81.600 296.757 C 81.600 299.550,81.471 300.364,81.000 300.545 C 80.540 300.721,80.400 301.479,80.400 303.787 C 80.400 305.529,80.231 306.800,80.000 306.800 C 79.761 306.800,79.600 308.333,79.600 310.600 C 79.600 313.711,79.491 314.400,79.000 314.400 C 78.521 314.400,78.400 314.996,78.400 317.367 C 78.400 319.329,78.236 320.388,77.917 320.494 C 77.575 320.608,77.468 321.726,77.550 324.328 C 77.649 327.460,77.573 328.000,77.033 328.000 C 76.508 328.000,76.400 328.548,76.400 331.200 C 76.400 333.778,76.283 334.400,75.800 334.400 C 75.311 334.400,75.200 335.067,75.200 338.000 C 75.200 340.133,75.037 341.600,74.800 341.600 C 74.567 341.600,74.400 342.933,74.400 344.800 C 74.400 347.378,74.283 348.000,73.800 348.000 C 73.312 348.000,73.200 348.662,73.200 351.557 C 73.200 354.350,73.071 355.164,72.600 355.345 C 72.140 355.521,72.000 356.279,72.000 358.587 C 72.000 360.329,71.831 361.600,71.600 361.600 C 71.363 361.600,71.200 363.067,71.200 365.200 C 71.200 368.133,71.089 368.800,70.600 368.800 C 69.714 368.800,69.714 376.715,70.600 377.055 C 70.991 377.205,71.200 377.828,71.200 378.843 C 71.200 379.699,71.380 380.400,71.600 380.400 C 71.820 380.400,72.000 380.810,72.000 381.311 C 72.000 382.204,73.223 383.600,74.005 383.600 C 74.222 383.600,74.400 383.793,74.400 384.029 C 74.400 384.582,75.418 385.600,75.971 385.600 C 76.207 385.600,76.400 385.778,76.400 385.995 C 76.400 386.777,77.796 388.000,78.689 388.000 C 79.190 388.000,79.600 388.180,79.600 388.400 C 79.600 388.649,81.933 388.800,85.800 388.800 C 89.667 388.800,92.000 388.649,92.000 388.400 C 92.000 388.180,92.456 388.000,93.013 388.000 C 93.569 388.000,94.129 387.730,94.255 387.400 C 94.382 387.070,94.916 386.800,95.443 386.800 C 96.027 386.800,96.400 386.566,96.400 386.200 C 96.400 385.827,96.778 385.600,97.400 385.600 C 97.950 385.600,98.400 385.420,98.400 385.200 C 98.400 384.980,98.850 384.800,99.400 384.800 C 100.022 384.800,100.400 384.573,100.400 384.200 C 100.400 383.800,100.800 383.600,101.600 383.600 C 102.407 383.600,102.800 383.401,102.800 382.992 C 102.800 382.544,103.062 382.451,103.800 382.636 C 104.556 382.826,104.800 382.730,104.800 382.243 C 104.800 381.824,105.148 381.600,105.800 381.600 C 106.422 381.600,106.800 381.373,106.800 381.000 C 106.800 380.627,107.178 380.400,107.800 380.400 C 108.350 380.400,108.800 380.220,108.800 380.000 C 108.800 379.780,109.256 379.600,109.813 379.600 C 110.369 379.600,110.929 379.330,111.055 379.000 C 111.182 378.670,111.716 378.400,112.243 378.400 C 112.769 378.400,113.200 378.195,113.200 377.944 C 113.200 377.325,114.438 376.428,115.313 376.413 C 115.704 376.406,116.129 376.130,116.255 375.800 C 116.382 375.470,116.916 375.200,117.443 375.200 C 117.969 375.200,118.400 375.020,118.400 374.800 C 118.400 374.580,118.850 374.400,119.400 374.400 C 120.022 374.400,120.400 374.173,120.400 373.800 C 120.400 373.400,120.800 373.200,121.600 373.200 C 122.400 373.200,122.800 373.000,122.800 372.600 C 122.800 372.227,123.178 372.000,123.800 372.000 C 124.350 372.000,124.800 371.820,124.800 371.600 C 124.800 371.380,125.166 371.200,125.613 371.200 C 126.059 371.200,126.529 370.930,126.655 370.600 C 126.782 370.270,127.316 370.000,127.843 370.000 C 128.427 370.000,128.800 369.766,128.800 369.400 C 128.800 369.000,129.200 368.800,130.000 368.800 C 130.660 368.800,131.200 368.620,131.200 368.400 C 131.200 368.180,131.650 368.000,132.200 368.000 C 132.822 368.000,133.200 367.773,133.200 367.400 C 133.200 367.064,133.557 366.800,134.013 366.800 C 134.459 366.800,134.929 366.530,135.055 366.200 C 135.182 365.870,135.716 365.600,136.243 365.600 C 136.769 365.600,137.200 365.420,137.200 365.200 C 137.200 364.980,137.470 364.800,137.800 364.800 C 138.130 364.800,138.400 364.530,138.400 364.200 C 138.400 363.827,138.778 363.600,139.400 363.600 C 140.052 363.600,140.400 363.376,140.400 362.957 C 140.400 362.469,140.644 362.374,141.409 362.566 C 142.116 362.744,142.488 362.637,142.652 362.210 C 142.780 361.874,143.316 361.600,143.843 361.600 C 144.427 361.600,144.800 361.366,144.800 361.000 C 144.800 360.627,145.178 360.400,145.800 360.400 C 146.350 360.400,146.800 360.220,146.800 360.000 C 146.800 359.780,147.250 359.600,147.800 359.600 C 148.422 359.600,148.800 359.373,148.800 359.000 C 148.800 358.625,149.179 358.400,149.813 358.400 C 150.369 358.400,150.929 358.130,151.055 357.800 C 151.182 357.470,151.716 357.200,152.243 357.200 C 152.769 357.200,153.200 357.020,153.200 356.800 C 153.200 356.580,153.650 356.400,154.200 356.400 C 154.822 356.400,155.200 356.173,155.200 355.800 C 155.200 355.427,155.578 355.200,156.200 355.200 C 156.750 355.200,157.200 355.020,157.200 354.800 C 157.200 354.580,157.656 354.400,158.213 354.400 C 158.769 354.400,159.329 354.130,159.455 353.800 C 159.582 353.470,160.116 353.200,160.643 353.200 C 161.227 353.200,161.600 352.966,161.600 352.600 C 161.600 352.270,161.870 352.000,162.200 352.000 C 162.530 352.000,162.800 351.820,162.800 351.600 C 162.800 351.380,163.250 351.200,163.800 351.200 C 164.422 351.200,164.800 350.973,164.800 350.600 C 164.800 350.227,165.178 350.000,165.800 350.000 C 166.422 350.000,166.800 349.773,166.800 349.400 C 166.800 349.027,167.178 348.800,167.800 348.800 C 168.350 348.800,168.800 348.620,168.800 348.400 C 168.800 348.180,169.256 348.000,169.813 348.000 C 170.369 348.000,170.929 347.730,171.055 347.400 C 171.182 347.070,171.716 346.800,172.243 346.800 C 172.827 346.800,173.200 346.566,173.200 346.200 C 173.200 345.827,173.578 345.600,174.200 345.600 C 174.750 345.600,175.200 345.420,175.200 345.200 C 175.200 344.980,175.650 344.800,176.200 344.800 C 176.822 344.800,177.200 344.573,177.200 344.200 C 177.200 343.800,177.600 343.600,178.400 343.600 C 179.207 343.600,179.600 343.401,179.600 342.992 C 179.600 342.544,179.862 342.451,180.600 342.636 C 181.356 342.826,181.600 342.730,181.600 342.243 C 181.600 341.824,181.948 341.600,182.600 341.600 C 183.222 341.600,183.600 341.373,183.600 341.000 C 183.600 340.627,183.978 340.400,184.600 340.400 C 185.150 340.400,185.600 340.220,185.600 340.000 C 185.600 339.780,185.870 339.600,186.200 339.600 C 186.530 339.600,186.800 339.330,186.800 339.000 C 186.800 338.627,187.178 338.400,187.800 338.400 C 188.422 338.400,188.800 338.173,188.800 337.800 C 188.800 337.400,189.200 337.200,190.000 337.200 C 190.660 337.200,191.200 337.020,191.200 336.800 C 191.200 336.580,191.650 336.400,192.200 336.400 C 192.822 336.400,193.200 336.173,193.200 335.800 C 193.200 335.427,193.578 335.200,194.200 335.200 C 194.750 335.200,195.200 335.020,195.200 334.800 C 195.200 334.580,195.566 334.400,196.013 334.400 C 196.459 334.400,196.929 334.130,197.055 333.800 C 197.187 333.458,197.783 333.200,198.443 333.200 C 199.205 333.200,199.600 332.995,199.600 332.600 C 199.600 332.270,199.780 332.000,200.000 332.000 C 200.220 332.000,200.400 332.270,200.400 332.600 C 200.400 333.000,200.800 333.200,201.600 333.200 C 202.400 333.200,202.800 333.400,202.800 333.800 C 202.800 334.173,203.178 334.400,203.800 334.400 C 204.350 334.400,204.800 334.568,204.800 334.773 C 204.800 334.979,205.295 335.204,205.900 335.273 C 206.519 335.345,206.956 335.619,206.900 335.900 C 206.842 336.191,207.209 336.400,207.776 336.400 C 208.313 336.400,208.864 336.580,209.000 336.800 C 209.136 337.020,209.687 337.200,210.224 337.200 C 210.825 337.200,211.200 337.431,211.200 337.800 C 211.200 338.173,211.578 338.400,212.200 338.400 C 212.822 338.400,213.200 338.627,213.200 339.000 C 213.200 339.373,213.578 339.600,214.200 339.600 C 214.750 339.600,215.200 339.780,215.200 340.000 C 215.200 340.220,215.470 340.400,215.800 340.400 C 216.130 340.400,216.400 340.670,216.400 341.000 C 216.400 341.366,216.773 341.600,217.357 341.600 C 217.884 341.600,218.423 341.882,218.555 342.228 C 218.715 342.645,219.065 342.770,219.598 342.601 C 220.168 342.420,220.400 342.528,220.400 342.973 C 220.400 343.403,220.777 343.600,221.600 343.600 C 222.400 343.600,222.800 343.800,222.800 344.200 C 222.800 344.573,223.178 344.800,223.800 344.800 C 224.350 344.800,224.800 344.980,224.800 345.200 C 224.800 345.420,225.250 345.600,225.800 345.600 C 226.422 345.600,226.800 345.827,226.800 346.200 C 226.800 346.566,227.173 346.800,227.757 346.800 C 228.284 346.800,228.818 347.070,228.945 347.400 C 229.071 347.730,229.631 348.000,230.187 348.000 C 230.744 348.000,231.200 348.180,231.200 348.400 C 231.200 348.620,231.650 348.800,232.200 348.800 C 232.822 348.800,233.200 349.027,233.200 349.400 C 233.200 349.773,233.578 350.000,234.200 350.000 C 234.822 350.000,235.200 350.227,235.200 350.600 C 235.200 351.003,235.603 351.200,236.424 351.200 C 237.137 351.200,237.544 351.367,237.400 351.600 C 237.256 351.833,237.663 352.000,238.376 352.000 C 239.049 352.000,239.600 352.178,239.600 352.395 C 239.600 353.177,240.996 354.400,241.889 354.400 C 242.390 354.400,242.800 354.580,242.800 354.800 C 242.800 355.020,243.250 355.200,243.800 355.200 C 244.422 355.200,244.800 355.427,244.800 355.800 C 244.800 356.173,245.178 356.400,245.800 356.400 C 246.350 356.400,246.800 356.580,246.800 356.800 C 246.800 357.020,247.256 357.200,247.813 357.200 C 248.369 357.200,248.929 357.470,249.055 357.800 C 249.182 358.130,249.716 358.400,250.243 358.400 C 250.827 358.400,251.200 358.634,251.200 359.000 C 251.200 359.373,251.578 359.600,252.200 359.600 C 252.750 359.600,253.200 359.780,253.200 360.000 C 253.200 360.220,253.650 360.400,254.200 360.400 C 254.822 360.400,255.200 360.627,255.200 361.000 C 255.200 361.375,255.579 361.600,256.213 361.600 C 256.769 361.600,257.328 361.869,257.454 362.197 C 257.609 362.601,257.993 362.717,258.642 362.554 C 259.355 362.375,259.600 362.478,259.600 362.957 C 259.600 363.376,259.948 363.600,260.600 363.600 C 261.222 363.600,261.600 363.827,261.600 364.200 C 261.600 364.573,261.978 364.800,262.600 364.800 C 263.150 364.800,263.600 364.980,263.600 365.200 C 263.600 365.420,263.870 365.600,264.200 365.600 C 264.530 365.600,264.800 365.870,264.800 366.200 C 264.800 366.566,265.173 366.800,265.757 366.800 C 266.284 366.800,266.818 367.070,266.945 367.400 C 267.071 367.730,267.541 368.000,267.987 368.000 C 268.434 368.000,268.800 368.180,268.800 368.400 C 268.800 368.620,269.340 368.800,270.000 368.800 C 270.800 368.800,271.200 369.000,271.200 369.400 C 271.200 369.773,271.578 370.000,272.200 370.000 C 272.750 370.000,273.200 370.232,273.200 370.515 C 273.200 370.798,273.602 371.060,274.094 371.097 C 274.586 371.134,275.051 371.352,275.127 371.582 C 275.204 371.812,275.682 372.000,276.191 372.000 C 276.699 372.000,277.218 372.270,277.345 372.600 C 277.471 372.930,278.011 373.200,278.545 373.200 C 279.078 373.200,279.618 373.470,279.745 373.800 C 279.871 374.130,280.341 374.400,280.787 374.400 C 281.234 374.400,281.600 374.580,281.600 374.800 C 281.600 375.020,282.031 375.200,282.557 375.200 C 283.084 375.200,283.618 375.470,283.745 375.800 C 283.871 376.130,284.296 376.406,284.687 376.413 C 285.562 376.428,286.800 377.325,286.800 377.944 C 286.800 378.195,287.231 378.400,287.757 378.400 C 288.284 378.400,288.818 378.670,288.945 379.000 C 289.071 379.330,289.631 379.600,290.187 379.600 C 290.744 379.600,291.200 379.780,291.200 380.000 C 291.200 380.220,291.650 380.400,292.200 380.400 C 292.822 380.400,293.200 380.627,293.200 381.000 C 293.200 381.366,293.573 381.600,294.157 381.600 C 294.684 381.600,295.218 381.869,295.344 382.198 C 295.473 382.534,295.973 382.753,296.487 382.698 C 297.042 382.638,297.361 382.796,297.300 383.100 C 297.238 383.411,297.653 383.600,298.400 383.600 C 299.200 383.600,299.600 383.800,299.600 384.200 C 299.600 384.573,299.978 384.800,300.600 384.800 C 301.150 384.800,301.600 384.980,301.600 385.200 C 301.600 385.420,302.050 385.600,302.600 385.600 C 303.222 385.600,303.600 385.827,303.600 386.200 C 303.600 386.600,304.000 386.800,304.800 386.800 C 305.600 386.800,306.000 387.000,306.000 387.400 C 306.000 387.773,306.378 388.000,307.000 388.000 C 307.550 388.000,308.000 388.180,308.000 388.400 C 308.000 388.649,310.333 388.800,314.200 388.800 C 318.067 388.800,320.400 388.649,320.400 388.400 C 320.400 388.180,320.810 388.000,321.311 388.000 C 322.204 388.000,323.600 386.777,323.600 385.995 C 323.600 385.778,323.793 385.600,324.029 385.600 C 324.582 385.600,325.600 384.582,325.600 384.029 C 325.600 383.793,325.778 383.600,325.995 383.600 C 326.777 383.600,328.000 382.204,328.000 381.311 C 328.000 380.810,328.180 380.400,328.400 380.400 C 328.620 380.400,328.800 379.680,328.800 378.800 C 328.800 377.644,328.967 377.200,329.400 377.200 C 329.895 377.200,330.000 376.467,330.000 373.000 C 330.000 369.533,329.895 368.800,329.400 368.800 C 328.911 368.800,328.800 368.133,328.800 365.200 C 328.800 363.067,328.637 361.600,328.400 361.600 C 328.169 361.600,328.000 360.329,328.000 358.587 C 328.000 356.279,327.860 355.521,327.400 355.345 C 326.929 355.164,326.800 354.350,326.800 351.557 C 326.800 348.662,326.688 348.000,326.200 348.000 C 325.717 348.000,325.600 347.378,325.600 344.800 C 325.600 342.933,325.433 341.600,325.200 341.600 C 324.963 341.600,324.800 340.133,324.800 338.000 C 324.800 335.067,324.689 334.400,324.200 334.400 C 323.717 334.400,323.600 333.778,323.600 331.200 C 323.600 328.548,323.492 328.000,322.967 328.000 C 322.427 328.000,322.351 327.460,322.450 324.328 C 322.532 321.726,322.425 320.608,322.083 320.494 C 321.764 320.388,321.600 319.329,321.600 317.367 C 321.600 314.996,321.479 314.400,321.000 314.400 C 320.509 314.400,320.400 313.711,320.400 310.600 C 320.400 308.333,320.239 306.800,320.000 306.800 C 319.769 306.800,319.600 305.529,319.600 303.787 C 319.600 301.479,319.460 300.721,319.000 300.545 C 318.529 300.364,318.400 299.550,318.400 296.757 C 318.400 293.862,318.288 293.200,317.800 293.200 C 317.317 293.200,317.200 292.578,317.200 290.000 C 317.200 288.133,317.033 286.800,316.800 286.800 C 316.563 286.800,316.400 285.333,316.400 283.200 C 316.400 280.267,316.289 279.600,315.800 279.600 C 315.317 279.600,315.200 278.978,315.200 276.400 C 315.200 274.533,315.033 273.200,314.800 273.200 C 314.565 273.200,314.400 271.816,314.400 269.849 C 314.400 267.358,314.246 266.370,313.800 266.000 C 313.366 265.640,313.200 264.686,313.200 262.551 C 313.200 260.195,313.079 259.600,312.600 259.600 C 312.109 259.600,312.000 258.911,312.000 255.800 C 312.000 253.533,311.839 252.000,311.600 252.000 C 311.380 252.000,311.200 251.550,311.200 251.000 C 311.200 250.450,311.380 250.000,311.600 250.000 C 311.820 250.000,312.000 249.730,312.000 249.400 C 312.000 249.070,312.209 248.800,312.464 248.800 C 312.970 248.800,315.200 246.459,315.200 245.928 C 315.200 245.748,315.393 245.600,315.629 245.600 C 316.182 245.600,317.200 244.582,317.200 244.029 C 317.200 243.793,317.348 243.600,317.528 243.600 C 318.059 243.600,320.400 241.370,320.400 240.864 C 320.400 240.609,320.609 240.400,320.864 240.400 C 321.370 240.400,323.600 238.059,323.600 237.528 C 323.600 237.348,323.793 237.200,324.029 237.200 C 324.582 237.200,325.600 236.182,325.600 235.629 C 325.600 235.393,325.794 235.200,326.031 235.200 C 326.268 235.200,326.988 234.674,327.631 234.031 C 328.274 233.388,328.800 232.668,328.800 232.431 C 328.800 232.194,328.994 232.000,329.231 232.000 C 329.468 232.000,330.188 231.474,330.831 230.831 C 331.474 230.188,332.000 229.468,332.000 229.231 C 332.000 228.994,332.209 228.800,332.464 228.800 C 332.970 228.800,335.200 226.459,335.200 225.928 C 335.200 225.748,335.393 225.600,335.629 225.600 C 335.864 225.600,336.314 225.343,336.629 225.029 C 336.943 224.714,337.200 224.264,337.200 224.029 C 337.200 223.793,337.348 223.600,337.528 223.600 C 338.059 223.600,340.400 221.370,340.400 220.864 C 340.400 220.609,340.609 220.400,340.864 220.400 C 341.370 220.400,343.600 218.059,343.600 217.528 C 343.600 217.348,343.793 217.200,344.029 217.200 C 344.264 217.200,344.714 216.943,345.029 216.629 C 345.343 216.314,345.600 215.864,345.600 215.629 C 345.600 215.393,345.794 215.200,346.031 215.200 C 346.268 215.200,346.988 214.674,347.631 214.031 C 348.274 213.388,348.800 212.668,348.800 212.431 C 348.800 212.194,348.994 212.000,349.231 212.000 C 349.468 212.000,350.188 211.474,350.831 210.831 C 351.474 210.188,352.000 209.468,352.000 209.231 C 352.000 208.994,352.209 208.800,352.464 208.800 C 352.970 208.800,355.200 206.459,355.200 205.928 C 355.200 205.748,355.393 205.600,355.629 205.600 C 356.182 205.600,357.200 204.582,357.200 204.029 C 357.200 203.793,357.348 203.600,357.528 203.600 C 358.059 203.600,360.400 201.370,360.400 200.864 C 360.400 200.609,360.609 200.400,360.864 200.400 C 361.370 200.400,363.600 198.059,363.600 197.528 C 363.600 197.348,363.793 197.200,364.029 197.200 C 364.582 197.200,365.600 196.182,365.600 195.629 C 365.600 195.393,365.794 195.200,366.031 195.200 C 366.591 195.200,368.800 192.991,368.800 192.431 C 368.800 192.194,368.994 192.000,369.231 192.000 C 369.791 192.000,372.000 189.791,372.000 189.231 C 372.000 188.994,372.194 188.800,372.431 188.800 C 372.991 188.800,375.200 186.591,375.200 186.031 C 375.200 185.794,375.393 185.600,375.629 185.600 C 376.182 185.600,377.200 184.582,377.200 184.029 C 377.200 183.793,377.348 183.600,377.528 183.600 C 378.059 183.600,380.400 181.370,380.400 180.864 C 380.400 180.609,380.609 180.400,380.864 180.400 C 381.370 180.400,383.600 178.059,383.600 177.528 C 383.600 177.348,383.793 177.200,384.029 177.200 C 384.582 177.200,385.600 176.182,385.600 175.629 C 385.600 175.393,385.794 175.200,386.031 175.200 C 386.591 175.200,388.800 172.991,388.800 172.431 C 388.800 172.194,388.994 172.000,389.231 172.000 C 389.791 172.000,392.000 169.791,392.000 169.231 C 392.000 168.994,392.194 168.800,392.431 168.800 C 392.991 168.800,395.200 166.591,395.200 166.031 C 395.200 165.794,395.393 165.600,395.629 165.600 C 396.389 165.600,397.200 164.485,397.200 163.441 C 397.200 162.702,397.364 162.488,397.800 162.655 C 398.271 162.836,398.400 162.544,398.400 161.292 C 398.400 160.363,398.650 159.490,399.000 159.200 C 399.876 158.473,399.876 151.200,399.000 151.200 C 398.567 151.200,398.400 150.756,398.400 149.600 C 398.400 148.444,398.233 148.000,397.800 148.000 C 397.448 148.000,397.195 147.628,397.187 147.100 C 397.173 146.068,396.328 144.800,395.656 144.800 C 395.405 144.800,395.200 144.607,395.200 144.371 C 395.200 143.838,394.190 142.800,393.671 142.800 C 393.459 142.800,393.182 142.530,393.055 142.200 C 392.929 141.870,392.479 141.600,392.055 141.600 C 391.632 141.600,391.182 141.330,391.055 141.000 C 390.911 140.623,390.299 140.400,389.413 140.400 C 388.636 140.400,388.000 140.220,388.000 140.000 C 388.000 139.767,386.667 139.600,384.800 139.600 C 382.222 139.600,381.600 139.483,381.600 139.000 C 381.600 138.517,380.978 138.400,378.400 138.400 C 376.106 138.400,375.200 138.258,375.201 137.900 C 375.201 137.536,374.195 137.400,371.501 137.400 C 368.753 137.400,367.826 137.271,367.900 136.900 C 367.973 136.533,367.147 136.400,364.800 136.400 C 362.222 136.400,361.600 136.283,361.600 135.800 C 361.600 135.311,360.933 135.200,358.000 135.200 C 355.867 135.200,354.400 135.037,354.400 134.800 C 354.400 134.567,353.067 134.400,351.200 134.400 C 348.622 134.400,348.000 134.283,348.000 133.800 C 348.000 133.309,347.311 133.200,344.200 133.200 C 341.089 133.200,340.400 133.091,340.400 132.600 C 340.400 132.120,339.800 132.000,337.400 132.000 C 335.667 132.000,334.400 131.831,334.400 131.600 C 334.400 131.361,332.867 131.200,330.600 131.200 C 327.489 131.200,326.800 131.091,326.800 130.600 C 326.800 130.117,326.178 130.000,323.600 130.000 C 321.022 130.000,320.400 129.883,320.400 129.400 C 320.400 128.911,319.733 128.800,316.800 128.800 C 314.667 128.800,313.200 128.637,313.200 128.400 C 313.200 128.167,311.867 128.000,310.000 128.000 C 307.422 128.000,306.800 127.883,306.800 127.400 C 306.800 126.912,306.137 126.800,303.233 126.800 C 300.899 126.800,299.614 126.641,299.513 126.339 C 299.412 126.036,298.313 125.907,296.280 125.961 C 293.728 126.028,293.200 125.936,293.200 125.421 C 293.200 124.903,292.568 124.800,289.400 124.800 C 286.289 124.800,285.600 124.691,285.600 124.200 C 285.600 123.720,285.000 123.600,282.600 123.600 C 280.867 123.600,279.600 123.431,279.600 123.200 C 279.600 122.961,278.067 122.800,275.800 122.800 C 272.689 122.800,272.000 122.691,272.000 122.200 C 272.000 121.717,271.378 121.600,268.800 121.600 C 266.222 121.600,265.600 121.483,265.600 121.000 C 265.600 120.670,265.420 120.400,265.200 120.400 C 264.980 120.400,264.800 119.950,264.800 119.400 C 264.800 118.813,264.593 118.441,264.300 118.500 C 264.019 118.556,263.745 118.119,263.673 117.500 C 263.596 116.830,263.306 116.400,262.930 116.400 C 262.472 116.400,262.378 116.143,262.564 115.400 C 262.749 114.662,262.656 114.400,262.208 114.400 C 261.799 114.400,261.600 114.007,261.600 113.200 C 261.600 112.400,261.400 112.000,261.000 112.000 C 260.627 112.000,260.400 111.622,260.400 111.000 C 260.400 110.450,260.220 110.000,260.000 110.000 C 259.780 110.000,259.600 109.550,259.600 109.000 C 259.600 108.398,259.372 108.000,259.027 108.000 C 258.698 108.000,258.399 107.530,258.327 106.900 C 258.255 106.281,257.981 105.844,257.700 105.900 C 257.391 105.962,257.200 105.553,257.200 104.833 C 257.200 104.192,257.012 103.604,256.782 103.527 C 256.552 103.451,256.334 102.986,256.297 102.494 C 256.260 102.002,255.998 101.600,255.715 101.600 C 255.432 101.600,255.200 101.150,255.200 100.600 C 255.200 100.050,255.020 99.600,254.800 99.600 C 254.580 99.600,254.400 99.262,254.400 98.849 C 254.400 98.436,254.130 97.874,253.800 97.600 C 253.470 97.326,253.200 96.674,253.200 96.151 C 253.200 95.572,252.965 95.200,252.600 95.200 C 252.227 95.200,252.000 94.822,252.000 94.200 C 252.000 93.650,251.820 93.200,251.600 93.200 C 251.380 93.200,251.200 92.750,251.200 92.200 C 251.200 91.578,250.973 91.200,250.600 91.200 C 250.200 91.200,250.000 90.800,250.000 90.000 C 250.000 89.200,249.800 88.800,249.400 88.800 C 249.027 88.800,248.800 88.422,248.800 87.800 C 248.800 87.250,248.620 86.800,248.400 86.800 C 248.180 86.800,248.000 86.350,248.000 85.800 C 248.000 85.178,247.773 84.800,247.400 84.800 C 247.027 84.800,246.800 84.422,246.800 83.800 C 246.800 83.178,246.573 82.800,246.200 82.800 C 245.800 82.800,245.600 82.400,245.600 81.600 C 245.600 80.940,245.420 80.400,245.200 80.400 C 244.980 80.400,244.800 79.950,244.800 79.400 C 244.800 78.778,244.573 78.400,244.200 78.400 C 243.827 78.400,243.600 78.022,243.600 77.400 C 243.600 76.748,243.376 76.400,242.957 76.400 C 242.470 76.400,242.374 76.156,242.564 75.400 C 242.749 74.662,242.656 74.400,242.208 74.400 C 241.799 74.400,241.600 74.007,241.600 73.200 C 241.600 72.400,241.400 72.000,241.000 72.000 C 240.627 72.000,240.400 71.622,240.400 71.000 C 240.400 70.450,240.220 70.000,240.000 70.000 C 239.780 70.000,239.600 69.550,239.600 69.000 C 239.600 68.398,239.372 68.000,239.027 68.000 C 238.698 68.000,238.399 67.530,238.327 66.900 C 238.255 66.281,237.981 65.844,237.700 65.900 C 237.391 65.962,237.200 65.553,237.200 64.833 C 237.200 64.192,237.012 63.604,236.782 63.527 C 236.552 63.451,236.334 62.986,236.297 62.494 C 236.260 62.002,235.998 61.600,235.715 61.600 C 235.432 61.600,235.200 61.150,235.200 60.600 C 235.200 60.050,235.020 59.600,234.800 59.600 C 234.580 59.600,234.400 59.262,234.400 58.849 C 234.400 58.436,234.130 57.874,233.800 57.600 C 233.470 57.326,233.200 56.674,233.200 56.151 C 233.200 55.572,232.965 55.200,232.600 55.200 C 232.227 55.200,232.000 54.822,232.000 54.200 C 232.000 53.650,231.820 53.200,231.600 53.200 C 231.380 53.200,231.200 52.750,231.200 52.200 C 231.200 51.578,230.973 51.200,230.600 51.200 C 230.200 51.200,230.000 50.800,230.000 50.000 C 230.000 49.200,229.800 48.800,229.400 48.800 C 229.027 48.800,228.800 48.422,228.800 47.800 C 228.800 47.250,228.620 46.800,228.400 46.800 C 228.180 46.800,228.000 46.350,228.000 45.800 C 228.000 45.178,227.773 44.800,227.400 44.800 C 227.027 44.800,226.800 44.422,226.800 43.800 C 226.800 43.178,226.573 42.800,226.200 42.800 C 225.800 42.800,225.600 42.400,225.600 41.600 C 225.600 40.940,225.420 40.400,225.200 40.400 C 224.980 40.400,224.800 39.950,224.800 39.400 C 224.800 38.778,224.573 38.400,224.200 38.400 C 223.827 38.400,223.600 38.022,223.600 37.400 C 223.600 36.748,223.376 36.400,222.957 36.400 C 222.470 36.400,222.374 36.156,222.564 35.400 C 222.749 34.662,222.656 34.400,222.208 34.400 C 221.799 34.400,221.600 34.007,221.600 33.200 C 221.600 32.400,221.400 32.000,221.000 32.000 C 220.627 32.000,220.400 31.622,220.400 31.000 C 220.400 30.450,220.220 30.000,220.000 30.000 C 219.780 30.000,219.600 29.550,219.600 29.000 C 219.600 28.398,219.372 28.000,219.027 28.000 C 218.698 28.000,218.399 27.530,218.327 26.900 C 218.255 26.281,217.981 25.844,217.700 25.900 C 217.391 25.962,217.200 25.553,217.200 24.833 C 217.200 24.192,217.012 23.604,216.782 23.527 C 216.552 23.451,216.334 22.986,216.297 22.494 C 216.260 22.002,215.998 21.600,215.715 21.600 C 215.432 21.600,215.200 21.150,215.200 20.600 C 215.200 20.050,215.020 19.600,214.800 19.600 C 214.580 19.600,214.394 19.285,214.387 18.900 C 214.371 18.076,213.063 16.400,212.436 16.400 C 212.196 16.400,212.000 16.207,212.000 15.971 C 212.000 15.418,210.982 14.400,210.429 14.400 C 210.193 14.400,210.000 14.130,210.000 13.800 C 210.000 13.427,209.622 13.200,209.000 13.200 C 208.378 13.200,208.000 12.973,208.000 12.600 C 208.000 12.200,207.600 12.000,206.800 12.000 C 206.140 12.000,205.600 11.820,205.600 11.600 C 205.600 11.352,203.467 11.200,200.000 11.200 C 196.533 11.200,194.400 11.352,194.400 11.600 M200.400 63.600 C 200.400 64.400,200.600 64.800,201.000 64.800 C 201.373 64.800,201.600 65.178,201.600 65.800 C 201.600 66.422,201.827 66.800,202.200 66.800 C 202.573 66.800,202.800 67.178,202.800 67.800 C 202.800 68.350,202.980 68.800,203.200 68.800 C 203.420 68.800,203.600 69.256,203.600 69.813 C 203.600 70.369,203.870 70.929,204.200 71.055 C 204.530 71.182,204.800 71.716,204.800 72.243 C 204.800 72.858,205.031 73.200,205.447 73.200 C 205.903 73.200,206.030 73.443,205.878 74.024 C 205.746 74.529,205.883 74.934,206.231 75.067 C 206.544 75.187,206.800 75.716,206.800 76.243 C 206.800 76.827,207.034 77.200,207.400 77.200 C 207.800 77.200,208.000 77.600,208.000 78.400 C 208.000 79.060,208.180 79.600,208.400 79.600 C 208.620 79.600,208.800 80.050,208.800 80.600 C 208.800 81.222,209.027 81.600,209.400 81.600 C 209.773 81.600,210.000 81.978,210.000 82.600 C 210.000 83.222,210.227 83.600,210.600 83.600 C 210.973 83.600,211.200 83.978,211.200 84.600 C 211.200 85.150,211.380 85.600,211.600 85.600 C 211.820 85.600,212.000 86.140,212.000 86.800 C 212.000 87.600,212.200 88.000,212.600 88.000 C 212.973 88.000,213.200 88.378,213.200 89.000 C 213.200 89.622,213.427 90.000,213.800 90.000 C 214.173 90.000,214.400 90.378,214.400 91.000 C 214.400 91.550,214.580 92.000,214.800 92.000 C 215.020 92.000,215.200 92.456,215.200 93.013 C 215.200 93.569,215.470 94.129,215.800 94.255 C 216.130 94.382,216.400 94.916,216.400 95.443 C 216.400 96.058,216.631 96.400,217.047 96.400 C 217.521 96.400,217.642 96.667,217.502 97.400 C 217.374 98.071,217.490 98.400,217.855 98.400 C 218.170 98.400,218.400 98.823,218.400 99.400 C 218.400 100.022,218.627 100.400,219.000 100.400 C 219.400 100.400,219.600 100.800,219.600 101.600 C 219.600 102.260,219.780 102.800,220.000 102.800 C 220.220 102.800,220.400 103.250,220.400 103.800 C 220.400 104.422,220.627 104.800,221.000 104.800 C 221.373 104.800,221.600 105.178,221.600 105.800 C 221.600 106.422,221.827 106.800,222.200 106.800 C 222.573 106.800,222.800 107.178,222.800 107.800 C 222.800 108.350,222.980 108.800,223.200 108.800 C 223.420 108.800,223.600 109.256,223.600 109.813 C 223.600 110.369,223.870 110.929,224.200 111.055 C 224.530 111.182,224.800 111.716,224.800 112.243 C 224.800 112.858,225.031 113.200,225.447 113.200 C 225.903 113.200,226.030 113.443,225.878 114.024 C 225.746 114.529,225.883 114.934,226.231 115.067 C 226.544 115.187,226.800 115.716,226.800 116.243 C 226.800 116.827,227.034 117.200,227.400 117.200 C 227.800 117.200,228.000 117.600,228.000 118.400 C 228.000 119.060,228.180 119.600,228.400 119.600 C 228.620 119.600,228.800 120.050,228.800 120.600 C 228.800 121.222,229.027 121.600,229.400 121.600 C 229.773 121.600,230.000 121.978,230.000 122.600 C 230.000 123.222,230.227 123.600,230.600 123.600 C 230.973 123.600,231.200 123.978,231.200 124.600 C 231.200 125.150,231.380 125.600,231.600 125.600 C 231.820 125.600,232.000 126.140,232.000 126.800 C 232.000 127.600,232.200 128.000,232.600 128.000 C 232.973 128.000,233.200 128.378,233.200 129.000 C 233.200 129.622,233.427 130.000,233.800 130.000 C 234.173 130.000,234.400 130.378,234.400 131.000 C 234.400 131.550,234.580 132.000,234.800 132.000 C 235.020 132.000,235.200 132.456,235.200 133.013 C 235.200 133.569,235.470 134.129,235.800 134.255 C 236.130 134.382,236.400 134.916,236.400 135.443 C 236.400 136.058,236.631 136.400,237.047 136.400 C 237.521 136.400,237.642 136.667,237.502 137.400 C 237.374 138.071,237.490 138.400,237.855 138.400 C 238.170 138.400,238.400 138.823,238.400 139.400 C 238.400 140.022,238.627 140.400,239.000 140.400 C 239.400 140.400,239.600 140.800,239.600 141.600 C 239.600 142.260,239.780 142.800,240.000 142.800 C 240.220 142.800,240.400 143.250,240.400 143.800 C 240.400 144.422,240.627 144.800,241.000 144.800 C 241.330 144.800,241.600 144.980,241.600 145.200 C 241.600 145.420,241.870 145.600,242.200 145.600 C 242.530 145.600,242.800 145.794,242.800 146.031 C 242.800 146.591,245.009 148.800,245.569 148.800 C 245.806 148.800,245.955 149.025,245.900 149.300 C 245.844 149.581,246.281 149.855,246.900 149.927 C 247.530 149.999,248.000 150.298,248.000 150.627 C 248.000 151.066,248.609 151.200,250.600 151.200 C 252.067 151.200,253.200 151.374,253.200 151.600 C 253.200 151.837,254.667 152.000,256.800 152.000 C 259.733 152.000,260.400 152.111,260.400 152.600 C 260.400 153.083,261.017 153.200,263.557 153.200 C 265.995 153.200,266.767 153.337,266.945 153.800 C 267.126 154.272,267.945 154.400,270.787 154.400 C 272.929 154.400,274.400 154.563,274.400 154.800 C 274.400 155.031,275.667 155.200,277.400 155.200 C 279.800 155.200,280.400 155.320,280.400 155.800 C 280.400 156.291,281.089 156.400,284.200 156.400 C 286.467 156.400,288.000 156.561,288.000 156.800 C 288.000 157.033,289.333 157.200,291.200 157.200 C 293.778 157.200,294.400 157.317,294.400 157.800 C 294.400 158.279,294.995 158.400,297.357 158.400 C 299.617 158.400,300.369 158.542,300.545 159.000 C 300.726 159.472,301.545 159.600,304.387 159.600 C 306.529 159.600,308.000 159.763,308.000 160.000 C 308.000 160.233,309.333 160.400,311.200 160.400 C 313.778 160.400,314.400 160.517,314.400 161.000 C 314.400 161.489,315.067 161.600,318.000 161.600 C 320.735 161.600,321.600 161.728,321.600 162.134 C 321.600 162.550,322.306 162.627,324.800 162.482 C 327.537 162.324,328.000 162.389,328.000 162.934 C 328.000 163.461,328.632 163.590,331.700 163.685 C 334.399 163.769,335.373 163.935,335.300 164.300 C 335.227 164.667,336.053 164.800,338.400 164.800 C 340.267 164.800,341.600 164.967,341.600 165.200 C 341.600 165.437,343.067 165.600,345.200 165.600 C 348.133 165.600,348.800 165.711,348.800 166.200 C 348.800 166.530,348.620 166.800,348.400 166.800 C 348.180 166.800,348.000 167.070,348.000 167.400 C 348.000 167.730,347.730 168.000,347.400 168.000 C 347.070 168.000,346.800 168.240,346.800 168.532 C 346.800 168.825,346.350 169.306,345.800 169.600 C 345.250 169.894,344.800 170.375,344.800 170.668 C 344.800 170.960,344.607 171.200,344.371 171.200 C 343.818 171.200,342.800 172.218,342.800 172.771 C 342.800 173.007,342.530 173.200,342.200 173.200 C 341.870 173.200,341.600 173.470,341.600 173.800 C 341.600 174.130,341.407 174.400,341.171 174.400 C 340.936 174.400,340.486 174.657,340.171 174.971 C 339.857 175.286,339.600 175.736,339.600 175.971 C 339.600 176.207,339.434 176.400,339.231 176.400 C 339.028 176.400,338.308 176.954,337.631 177.631 C 336.954 178.308,336.400 179.028,336.400 179.231 C 336.400 179.434,336.207 179.600,335.971 179.600 C 335.736 179.600,335.286 179.857,334.971 180.171 C 334.657 180.486,334.400 180.936,334.400 181.171 C 334.400 181.407,334.130 181.600,333.800 181.600 C 333.470 181.600,333.200 181.870,333.200 182.200 C 333.200 182.530,333.007 182.800,332.771 182.800 C 332.536 182.800,332.086 183.057,331.771 183.371 C 331.457 183.686,331.200 184.136,331.200 184.371 C 331.200 184.607,330.960 184.800,330.668 184.800 C 330.375 184.800,329.894 185.250,329.600 185.800 C 329.306 186.350,328.825 186.800,328.532 186.800 C 328.240 186.800,328.000 187.070,328.000 187.400 C 328.000 187.730,327.730 188.000,327.400 188.000 C 327.070 188.000,326.800 188.240,326.800 188.532 C 326.800 188.825,326.350 189.306,325.800 189.600 C 325.250 189.894,324.800 190.375,324.800 190.668 C 324.800 190.960,324.607 191.200,324.371 191.200 C 324.136 191.200,323.686 191.457,323.371 191.771 C 323.057 192.086,322.800 192.536,322.800 192.771 C 322.800 193.007,322.530 193.200,322.200 193.200 C 321.870 193.200,321.600 193.470,321.600 193.800 C 321.600 194.130,321.407 194.400,321.171 194.400 C 320.936 194.400,320.486 194.657,320.171 194.971 C 319.857 195.286,319.600 195.736,319.600 195.971 C 319.600 196.207,319.434 196.400,319.231 196.400 C 318.750 196.400,316.400 198.750,316.400 199.231 C 316.400 199.434,316.207 199.600,315.971 199.600 C 315.736 199.600,315.286 199.857,314.971 200.171 C 314.657 200.486,314.400 200.936,314.400 201.171 C 314.400 201.407,314.130 201.600,313.800 201.600 C 313.470 201.600,313.200 201.870,313.200 202.200 C 313.200 202.530,313.007 202.800,312.771 202.800 C 312.536 202.800,312.086 203.057,311.771 203.371 C 311.457 203.686,311.200 204.136,311.200 204.371 C 311.200 204.607,310.960 204.800,310.668 204.800 C 310.375 204.800,309.894 205.250,309.600 205.800 C 309.306 206.350,308.825 206.800,308.532 206.800 C 308.240 206.800,308.000 207.070,308.000 207.400 C 308.000 207.730,307.730 208.000,307.400 208.000 C 307.070 208.000,306.800 208.240,306.800 208.532 C 306.800 208.825,306.350 209.306,305.800 209.600 C 305.250 209.894,304.800 210.375,304.800 210.668 C 304.800 210.960,304.607 211.200,304.371 211.200 C 303.818 211.200,302.800 212.218,302.800 212.771 C 302.800 213.007,302.530 213.200,302.200 213.200 C 301.870 213.200,301.600 213.470,301.600 213.800 C 301.600 214.130,301.407 214.400,301.171 214.400 C 300.618 214.400,299.600 215.418,299.600 215.971 C 299.600 216.207,299.434 216.400,299.231 216.400 C 298.750 216.400,296.400 218.750,296.400 219.231 C 296.400 219.434,296.207 219.600,295.971 219.600 C 295.418 219.600,294.400 220.618,294.400 221.171 C 294.400 221.407,294.130 221.600,293.800 221.600 C 293.470 221.600,293.200 221.870,293.200 222.200 C 293.200 222.530,293.007 222.800,292.771 222.800 C 292.218 222.800,291.200 223.818,291.200 224.371 C 291.200 224.607,290.960 224.800,290.668 224.800 C 290.375 224.800,289.894 225.250,289.600 225.800 C 289.306 226.350,288.825 226.800,288.532 226.800 C 288.240 226.800,288.000 227.070,288.000 227.400 C 288.000 227.730,287.730 228.000,287.400 228.000 C 287.070 228.000,286.800 228.240,286.800 228.532 C 286.800 228.825,286.350 229.306,285.800 229.600 C 285.250 229.894,284.800 230.375,284.800 230.668 C 284.800 230.960,284.607 231.200,284.371 231.200 C 283.818 231.200,282.800 232.218,282.800 232.771 C 282.800 233.007,282.530 233.200,282.200 233.200 C 281.827 233.200,281.600 233.578,281.600 234.200 C 281.600 234.822,281.373 235.200,281.000 235.200 C 280.670 235.200,280.400 235.470,280.400 235.800 C 280.400 236.130,280.220 236.400,280.000 236.400 C 279.780 236.400,279.600 237.120,279.600 238.000 C 279.600 239.156,279.433 239.600,279.000 239.600 C 278.494 239.600,278.400 240.511,278.400 245.400 C 278.400 250.289,278.494 251.200,279.000 251.200 C 279.489 251.200,279.600 251.867,279.600 254.800 C 279.600 256.933,279.763 258.400,280.000 258.400 C 280.233 258.400,280.400 259.733,280.400 261.600 C 280.400 264.178,280.517 264.800,281.000 264.800 C 281.489 264.800,281.600 265.467,281.600 268.400 C 281.600 271.333,281.711 272.000,282.200 272.000 C 282.683 272.000,282.800 272.622,282.800 275.200 C 282.800 277.067,282.967 278.400,283.200 278.400 C 283.437 278.400,283.600 279.867,283.600 282.000 C 283.600 284.933,283.711 285.600,284.200 285.600 C 284.683 285.600,284.800 286.222,284.800 288.800 C 284.800 291.424,284.912 292.000,285.420 292.000 C 285.941 292.000,286.029 292.590,285.966 295.682 C 285.916 298.134,286.043 299.414,286.346 299.515 C 286.630 299.610,286.800 300.775,286.800 302.633 C 286.800 305.004,286.921 305.600,287.400 305.600 C 287.891 305.600,288.000 306.289,288.000 309.400 C 288.000 311.667,288.161 313.200,288.400 313.200 C 288.631 313.200,288.800 314.471,288.800 316.213 C 288.800 318.521,288.940 319.279,289.400 319.455 C 289.871 319.636,290.000 320.450,290.000 323.243 C 290.000 326.138,290.112 326.800,290.600 326.800 C 291.083 326.800,291.200 327.422,291.200 330.000 C 291.200 331.867,291.367 333.200,291.600 333.200 C 291.837 333.200,292.000 334.667,292.000 336.800 C 292.000 339.792,292.105 340.400,292.623 340.400 C 293.109 340.400,293.219 340.775,293.123 342.100 C 293.006 343.719,291.737 344.446,291.267 343.163 C 291.193 342.964,290.608 342.800,289.967 342.800 C 289.196 342.800,288.800 342.596,288.800 342.200 C 288.800 341.827,288.422 341.600,287.800 341.600 C 287.178 341.600,286.800 341.373,286.800 341.000 C 286.800 340.627,286.422 340.400,285.800 340.400 C 285.250 340.400,284.800 340.220,284.800 340.000 C 284.800 339.780,284.369 339.600,283.843 339.600 C 283.316 339.600,282.782 339.330,282.655 339.000 C 282.529 338.670,281.969 338.400,281.413 338.400 C 280.856 338.400,280.400 338.207,280.400 337.971 C 280.400 337.208,279.283 336.400,278.229 336.400 C 277.581 336.400,277.200 336.178,277.200 335.800 C 277.200 335.427,276.822 335.200,276.200 335.200 C 275.650 335.200,275.200 335.020,275.200 334.800 C 275.200 334.580,274.750 334.400,274.200 334.400 C 273.578 334.400,273.200 334.173,273.200 333.800 C 273.200 333.434,272.827 333.200,272.243 333.200 C 271.716 333.200,271.182 332.930,271.055 332.600 C 270.929 332.270,270.369 332.000,269.813 332.000 C 269.256 332.000,268.800 331.820,268.800 331.600 C 268.800 331.380,268.350 331.200,267.800 331.200 C 267.178 331.200,266.800 330.973,266.800 330.600 C 266.800 330.227,266.422 330.000,265.800 330.000 C 265.178 330.000,264.800 329.773,264.800 329.400 C 264.800 329.027,264.422 328.800,263.800 328.800 C 263.250 328.800,262.800 328.620,262.800 328.400 C 262.800 328.180,262.260 328.000,261.600 328.000 C 260.800 328.000,260.400 327.800,260.400 327.400 C 260.400 327.034,260.027 326.800,259.443 326.800 C 258.916 326.800,258.387 326.544,258.267 326.231 C 258.134 325.883,257.729 325.746,257.224 325.878 C 256.643 326.030,256.400 325.903,256.400 325.447 C 256.400 325.091,256.130 324.800,255.800 324.800 C 255.470 324.800,255.200 324.530,255.200 324.200 C 255.200 323.827,254.822 323.600,254.200 323.600 C 253.650 323.600,253.200 323.432,253.200 323.227 C 253.200 323.021,252.705 322.796,252.100 322.727 C 251.481 322.655,251.044 322.381,251.100 322.100 C 251.162 321.789,250.747 321.600,250.000 321.600 C 249.200 321.600,248.800 321.400,248.800 321.000 C 248.800 320.627,248.422 320.400,247.800 320.400 C 247.250 320.400,246.800 320.220,246.800 320.000 C 246.800 319.780,246.350 319.600,245.800 319.600 C 245.250 319.600,244.800 319.368,244.800 319.085 C 244.800 318.802,244.438 318.543,243.996 318.510 C 243.554 318.476,242.927 318.184,242.603 317.860 C 242.279 317.536,241.651 317.366,241.207 317.482 C 240.643 317.630,240.400 317.498,240.400 317.047 C 240.400 316.624,240.054 316.400,239.400 316.400 C 238.778 316.400,238.400 316.173,238.400 315.800 C 238.400 315.427,238.022 315.200,237.400 315.200 C 236.850 315.200,236.400 315.020,236.400 314.800 C 236.400 314.580,235.950 314.400,235.400 314.400 C 234.778 314.400,234.400 314.173,234.400 313.800 C 234.400 313.400,234.000 313.200,233.200 313.200 C 232.400 313.200,232.000 313.000,232.000 312.600 C 232.000 312.227,231.622 312.000,231.000 312.000 C 230.450 312.000,230.000 311.820,230.000 311.600 C 230.000 311.380,229.730 311.200,229.400 311.200 C 229.070 311.200,228.800 310.930,228.800 310.600 C 228.800 310.227,228.422 310.000,227.800 310.000 C 227.250 310.000,226.800 309.823,226.800 309.608 C 226.800 309.392,226.350 309.102,225.800 308.964 C 225.250 308.826,224.800 308.553,224.800 308.357 C 224.800 308.160,224.369 308.000,223.843 308.000 C 223.316 308.000,222.782 307.730,222.655 307.400 C 222.529 307.070,221.989 306.800,221.455 306.800 C 220.922 306.800,220.387 306.544,220.267 306.231 C 220.134 305.883,219.729 305.746,219.224 305.878 C 218.643 306.030,218.400 305.903,218.400 305.447 C 218.400 305.031,218.058 304.800,217.443 304.800 C 216.916 304.800,216.382 304.530,216.255 304.200 C 216.129 303.870,215.659 303.600,215.213 303.600 C 214.766 303.600,214.400 303.420,214.400 303.200 C 214.400 302.980,213.860 302.800,213.200 302.800 C 212.400 302.800,212.000 302.600,212.000 302.200 C 212.000 301.834,211.627 301.600,211.043 301.600 C 210.516 301.600,209.982 301.330,209.855 301.000 C 209.729 300.670,209.259 300.400,208.813 300.400 C 208.366 300.400,208.000 300.220,208.000 300.000 C 208.000 299.780,207.460 299.600,206.800 299.600 C 206.000 299.600,205.600 299.400,205.600 299.000 C 205.600 298.495,204.711 298.400,200.000 298.400 C 195.289 298.400,194.400 298.495,194.400 299.000 C 194.400 299.400,194.000 299.600,193.200 299.600 C 192.540 299.600,192.000 299.780,192.000 300.000 C 192.000 300.220,191.550 300.400,191.000 300.400 C 190.378 300.400,190.000 300.627,190.000 301.000 C 190.000 301.373,189.622 301.600,189.000 301.600 C 188.378 301.600,188.000 301.827,188.000 302.200 C 188.000 302.569,187.625 302.800,187.024 302.800 C 186.487 302.800,185.936 302.980,185.800 303.200 C 185.664 303.420,185.198 303.600,184.764 303.600 C 184.330 303.600,183.871 303.870,183.745 304.200 C 183.618 304.530,183.084 304.800,182.557 304.800 C 181.942 304.800,181.600 305.031,181.600 305.447 C 181.600 305.903,181.357 306.030,180.776 305.878 C 180.271 305.746,179.866 305.883,179.733 306.231 C 179.613 306.544,179.078 306.800,178.545 306.800 C 178.011 306.800,177.471 307.070,177.345 307.400 C 177.218 307.730,176.684 308.000,176.157 308.000 C 175.631 308.000,175.200 308.160,175.200 308.357 C 175.200 308.553,174.750 308.826,174.200 308.964 C 173.650 309.102,173.200 309.392,173.200 309.608 C 173.200 309.823,172.750 310.000,172.200 310.000 C 171.578 310.000,171.200 310.227,171.200 310.600 C 171.200 310.930,170.930 311.200,170.600 311.200 C 170.270 311.200,170.000 311.380,170.000 311.600 C 170.000 311.820,169.550 312.000,169.000 312.000 C 168.398 312.000,168.000 312.228,168.000 312.573 C 168.000 312.902,167.530 313.201,166.900 313.273 C 166.281 313.345,165.844 313.619,165.900 313.900 C 165.962 314.211,165.547 314.400,164.800 314.400 C 164.140 314.400,163.600 314.580,163.600 314.800 C 163.600 315.020,163.150 315.200,162.600 315.200 C 161.978 315.200,161.600 315.427,161.600 315.800 C 161.600 316.173,161.222 316.400,160.600 316.400 C 159.960 316.400,159.600 316.625,159.600 317.025 C 159.600 317.411,159.318 317.602,158.861 317.525 C 158.455 317.456,157.840 317.635,157.493 317.922 C 157.147 318.210,156.490 318.473,156.032 318.508 C 155.574 318.542,155.200 318.802,155.200 319.085 C 155.200 319.368,154.750 319.600,154.200 319.600 C 153.650 319.600,153.200 319.780,153.200 320.000 C 153.200 320.220,152.750 320.400,152.200 320.400 C 151.578 320.400,151.200 320.627,151.200 321.000 C 151.200 321.366,150.827 321.600,150.243 321.600 C 149.716 321.600,149.182 321.870,149.055 322.200 C 148.929 322.530,148.447 322.800,147.984 322.800 C 147.088 322.800,146.000 323.662,146.000 324.371 C 146.000 324.607,145.460 324.800,144.800 324.800 C 143.962 324.800,143.600 324.995,143.600 325.447 C 143.600 325.903,143.357 326.030,142.776 325.878 C 142.271 325.746,141.866 325.883,141.733 326.231 C 141.613 326.544,141.084 326.800,140.557 326.800 C 139.973 326.800,139.600 327.034,139.600 327.400 C 139.600 327.803,139.197 328.000,138.376 328.000 C 137.663 328.000,137.256 328.167,137.400 328.400 C 137.544 328.633,137.137 328.800,136.424 328.800 C 135.603 328.800,135.200 328.997,135.200 329.400 C 135.200 329.773,134.822 330.000,134.200 330.000 C 133.578 330.000,133.200 330.227,133.200 330.600 C 133.200 330.973,132.822 331.200,132.200 331.200 C 131.650 331.200,131.200 331.380,131.200 331.600 C 131.200 331.820,130.744 332.000,130.187 332.000 C 129.631 332.000,129.071 332.270,128.945 332.600 C 128.818 332.930,128.284 333.200,127.757 333.200 C 127.173 333.200,126.800 333.434,126.800 333.800 C 126.800 334.173,126.422 334.400,125.800 334.400 C 125.250 334.400,124.800 334.580,124.800 334.800 C 124.800 335.020,124.350 335.200,123.800 335.200 C 123.178 335.200,122.800 335.427,122.800 335.800 C 122.800 336.130,122.530 336.400,122.200 336.400 C 121.870 336.400,121.600 336.690,121.600 337.043 C 121.600 337.530,121.356 337.626,120.600 337.436 C 119.862 337.251,119.600 337.344,119.600 337.792 C 119.600 338.176,119.226 338.400,118.587 338.400 C 118.031 338.400,117.471 338.670,117.345 339.000 C 117.218 339.330,116.684 339.600,116.157 339.600 C 115.631 339.600,115.200 339.780,115.200 340.000 C 115.200 340.220,114.750 340.400,114.200 340.400 C 113.578 340.400,113.200 340.627,113.200 341.000 C 113.200 341.373,112.822 341.600,112.200 341.600 C 111.578 341.600,111.200 341.827,111.200 342.200 C 111.200 342.569,110.825 342.800,110.224 342.800 C 109.687 342.800,109.136 342.980,109.000 343.200 C 108.260 344.397,106.800 343.601,106.800 342.000 C 106.800 340.844,106.967 340.400,107.400 340.400 C 107.889 340.400,108.000 339.733,108.000 336.800 C 108.000 334.667,108.163 333.200,108.400 333.200 C 108.633 333.200,108.800 331.867,108.800 330.000 C 108.800 327.422,108.917 326.800,109.400 326.800 C 109.888 326.800,110.000 326.138,110.000 323.243 C 110.000 320.450,110.129 319.636,110.600 319.455 C 111.060 319.279,111.200 318.521,111.200 316.213 C 111.200 314.471,111.369 313.200,111.600 313.200 C 111.839 313.200,112.000 311.667,112.000 309.400 C 112.000 306.289,112.109 305.600,112.600 305.600 C 113.079 305.600,113.200 305.005,113.200 302.643 C 113.200 300.383,113.342 299.631,113.800 299.455 C 114.272 299.274,114.400 298.455,114.400 295.613 C 114.400 293.471,114.563 292.000,114.800 292.000 C 115.033 292.000,115.200 290.667,115.200 288.800 C 115.200 286.222,115.317 285.600,115.800 285.600 C 116.289 285.600,116.400 284.933,116.400 282.000 C 116.400 279.867,116.563 278.400,116.800 278.400 C 117.033 278.400,117.200 277.067,117.200 275.200 C 117.200 272.622,117.317 272.000,117.800 272.000 C 118.289 272.000,118.400 271.333,118.400 268.400 C 118.400 265.467,118.511 264.800,119.000 264.800 C 119.483 264.800,119.600 264.178,119.600 261.600 C 119.600 259.733,119.767 258.400,120.000 258.400 C 120.237 258.400,120.400 256.933,120.400 254.800 C 120.400 251.867,120.511 251.200,121.000 251.200 C 121.506 251.200,121.600 250.289,121.600 245.400 C 121.600 240.511,121.506 239.600,121.000 239.600 C 120.567 239.600,120.400 239.156,120.400 238.000 C 120.400 237.120,120.220 236.400,120.000 236.400 C 119.780 236.400,119.600 236.130,119.600 235.800 C 119.600 235.470,119.330 235.200,119.000 235.200 C 118.627 235.200,118.400 234.822,118.400 234.200 C 118.400 233.578,118.173 233.200,117.800 233.200 C 117.470 233.200,117.200 233.007,117.200 232.771 C 117.200 232.218,116.182 231.200,115.629 231.200 C 115.393 231.200,115.200 230.960,115.200 230.668 C 115.200 230.375,114.750 229.894,114.200 229.600 C 113.650 229.306,113.200 228.825,113.200 228.532 C 113.200 228.240,112.930 228.000,112.600 228.000 C 112.270 228.000,112.000 227.814,112.000 227.587 C 112.000 227.069,109.709 224.800,109.186 224.800 C 108.974 224.800,108.800 224.607,108.800 224.371 C 108.800 223.818,107.782 222.800,107.229 222.800 C 106.993 222.800,106.800 222.530,106.800 222.200 C 106.800 221.870,106.530 221.600,106.200 221.600 C 105.870 221.600,105.600 221.407,105.600 221.171 C 105.600 220.618,104.582 219.600,104.029 219.600 C 103.793 219.600,103.600 219.414,103.600 219.187 C 103.600 218.669,101.309 216.400,100.786 216.400 C 100.574 216.400,100.400 216.207,100.400 215.971 C 100.400 215.418,99.382 214.400,98.829 214.400 C 98.593 214.400,98.400 214.130,98.400 213.800 C 98.400 213.470,98.130 213.200,97.800 213.200 C 97.470 213.200,97.200 213.007,97.200 212.771 C 97.200 212.218,96.182 211.200,95.629 211.200 C 95.393 211.200,95.200 210.960,95.200 210.668 C 95.200 210.375,94.750 209.894,94.200 209.600 C 93.650 209.306,93.200 208.825,93.200 208.532 C 93.200 208.240,92.930 208.000,92.600 208.000 C 92.270 208.000,92.000 207.814,92.000 207.587 C 92.000 207.069,89.709 204.800,89.186 204.800 C 88.974 204.800,88.800 204.607,88.800 204.371 C 88.800 204.136,88.543 203.686,88.229 203.371 C 87.914 203.057,87.464 202.800,87.229 202.800 C 86.993 202.800,86.800 202.530,86.800 202.200 C 86.800 201.870,86.530 201.600,86.200 201.600 C 85.870 201.600,85.600 201.407,85.600 201.171 C 85.600 200.618,84.582 199.600,84.029 199.600 C 83.793 199.600,83.600 199.414,83.600 199.187 C 83.600 198.669,81.309 196.400,80.786 196.400 C 80.574 196.400,80.400 196.207,80.400 195.971 C 80.400 195.736,80.143 195.286,79.829 194.971 C 79.514 194.657,79.064 194.400,78.829 194.400 C 78.593 194.400,78.400 194.130,78.400 193.800 C 78.400 193.470,78.130 193.200,77.800 193.200 C 77.470 193.200,77.200 193.007,77.200 192.771 C 77.200 192.218,76.182 191.200,75.629 191.200 C 75.393 191.200,75.200 190.960,75.200 190.668 C 75.200 190.375,74.750 189.894,74.200 189.600 C 73.650 189.306,73.200 188.825,73.200 188.532 C 73.200 188.240,72.930 188.000,72.600 188.000 C 72.270 188.000,72.000 187.814,72.000 187.587 C 72.000 187.069,69.709 184.800,69.186 184.800 C 68.974 184.800,68.800 184.607,68.800 184.371 C 68.800 183.818,67.782 182.800,67.229 182.800 C 66.993 182.800,66.800 182.530,66.800 182.200 C 66.800 181.870,66.530 181.600,66.200 181.600 C 65.870 181.600,65.600 181.407,65.600 181.171 C 65.600 180.618,64.582 179.600,64.029 179.600 C 63.793 179.600,63.600 179.414,63.600 179.187 C 63.600 178.669,61.309 176.400,60.786 176.400 C 60.574 176.400,60.400 176.207,60.400 175.971 C 60.400 175.418,59.382 174.400,58.829 174.400 C 58.593 174.400,58.400 174.130,58.400 173.800 C 58.400 173.470,58.130 173.200,57.800 173.200 C 57.470 173.200,57.200 173.007,57.200 172.771 C 57.200 172.218,56.182 171.200,55.629 171.200 C 55.393 171.200,55.200 170.960,55.200 170.668 C 55.200 170.375,54.750 169.894,54.200 169.600 C 53.650 169.306,53.200 168.825,53.200 168.532 C 53.200 168.240,52.930 168.000,52.600 168.000 C 52.270 168.000,52.000 167.730,52.000 167.400 C 52.000 167.070,51.820 166.800,51.600 166.800 C 51.380 166.800,51.200 166.530,51.200 166.200 C 51.200 165.711,51.867 165.600,54.800 165.600 C 56.933 165.600,58.400 165.437,58.400 165.200 C 58.400 164.967,59.733 164.800,61.600 164.800 C 64.178 164.800,64.800 164.683,64.800 164.200 C 64.800 163.711,65.467 163.600,68.400 163.600 C 71.439 163.600,72.000 163.500,72.000 162.958 C 72.000 162.409,72.468 162.337,75.200 162.461 C 77.580 162.569,78.400 162.477,78.400 162.103 C 78.400 161.736,79.375 161.600,82.000 161.600 C 84.933 161.600,85.600 161.489,85.600 161.000 C 85.600 160.517,86.222 160.400,88.800 160.400 C 90.667 160.400,92.000 160.233,92.000 160.000 C 92.000 159.765,93.384 159.600,95.351 159.600 C 97.842 159.600,98.830 159.446,99.200 159.000 C 99.560 158.566,100.514 158.400,102.649 158.400 C 105.005 158.400,105.600 158.279,105.600 157.800 C 105.600 157.309,106.289 157.200,109.400 157.200 C 111.667 157.200,113.200 157.039,113.200 156.800 C 113.200 156.567,114.533 156.400,116.400 156.400 C 118.978 156.400,119.600 156.283,119.600 155.800 C 119.600 155.311,120.267 155.200,123.200 155.200 C 125.333 155.200,126.800 155.037,126.800 154.800 C 126.800 154.567,128.133 154.400,130.000 154.400 C 132.578 154.400,133.200 154.283,133.200 153.800 C 133.200 153.311,133.867 153.200,136.800 153.200 C 139.733 153.200,140.400 153.089,140.400 152.600 C 140.400 152.117,141.022 152.000,143.600 152.000 C 145.467 152.000,146.800 151.833,146.800 151.600 C 146.800 151.374,147.933 151.200,149.400 151.200 C 151.444 151.200,152.000 151.072,152.000 150.600 C 152.000 150.256,152.360 150.000,152.844 150.000 C 153.697 150.000,157.200 146.798,157.200 146.019 C 157.200 145.789,157.470 145.600,157.800 145.600 C 158.130 145.600,158.400 145.420,158.400 145.200 C 158.400 144.980,158.670 144.800,159.000 144.800 C 159.373 144.800,159.600 144.422,159.600 143.800 C 159.600 143.250,159.780 142.800,160.000 142.800 C 160.220 142.800,160.400 142.260,160.400 141.600 C 160.400 140.800,160.600 140.400,161.000 140.400 C 161.373 140.400,161.600 140.022,161.600 139.400 C 161.600 138.772,161.826 138.400,162.208 138.400 C 162.656 138.400,162.749 138.138,162.564 137.400 C 162.374 136.644,162.470 136.400,162.957 136.400 C 163.376 136.400,163.600 136.052,163.600 135.400 C 163.600 134.778,163.827 134.400,164.200 134.400 C 164.600 134.400,164.800 134.000,164.800 133.200 C 164.800 132.540,164.980 132.000,165.200 132.000 C 165.420 132.000,165.600 131.550,165.600 131.000 C 165.600 130.378,165.827 130.000,166.200 130.000 C 166.573 130.000,166.800 129.622,166.800 129.000 C 166.800 128.378,167.027 128.000,167.400 128.000 C 167.800 128.000,168.000 127.600,168.000 126.800 C 168.000 126.140,168.180 125.600,168.400 125.600 C 168.620 125.600,168.800 125.150,168.800 124.600 C 168.800 123.978,169.027 123.600,169.400 123.600 C 169.773 123.600,170.000 123.222,170.000 122.600 C 170.000 121.978,170.227 121.600,170.600 121.600 C 170.973 121.600,171.200 121.222,171.200 120.600 C 171.200 120.050,171.380 119.600,171.600 119.600 C 171.820 119.600,172.000 119.060,172.000 118.400 C 172.000 117.600,172.200 117.200,172.600 117.200 C 172.966 117.200,173.200 116.827,173.200 116.243 C 173.200 115.716,173.470 115.182,173.800 115.055 C 174.130 114.929,174.400 114.459,174.400 114.013 C 174.400 113.566,174.580 113.200,174.800 113.200 C 175.020 113.200,175.200 112.769,175.200 112.243 C 175.200 111.716,175.470 111.182,175.800 111.055 C 176.130 110.929,176.400 110.369,176.400 109.813 C 176.400 109.256,176.580 108.800,176.800 108.800 C 177.020 108.800,177.200 108.350,177.200 107.800 C 177.200 107.178,177.427 106.800,177.800 106.800 C 178.173 106.800,178.400 106.422,178.400 105.800 C 178.400 105.178,178.627 104.800,179.000 104.800 C 179.373 104.800,179.600 104.422,179.600 103.800 C 179.600 103.250,179.780 102.800,180.000 102.800 C 180.220 102.800,180.400 102.260,180.400 101.600 C 180.400 100.800,180.600 100.400,181.000 100.400 C 181.373 100.400,181.600 100.022,181.600 99.400 C 181.600 98.772,181.826 98.400,182.208 98.400 C 182.656 98.400,182.749 98.138,182.564 97.400 C 182.374 96.644,182.470 96.400,182.957 96.400 C 183.376 96.400,183.600 96.052,183.600 95.400 C 183.600 94.778,183.827 94.400,184.200 94.400 C 184.600 94.400,184.800 94.000,184.800 93.200 C 184.800 92.540,184.980 92.000,185.200 92.000 C 185.420 92.000,185.600 91.550,185.600 91.000 C 185.600 90.378,185.827 90.000,186.200 90.000 C 186.573 90.000,186.800 89.622,186.800 89.000 C 186.800 88.378,187.027 88.000,187.400 88.000 C 187.800 88.000,188.000 87.600,188.000 86.800 C 188.000 86.140,188.180 85.600,188.400 85.600 C 188.620 85.600,188.800 85.150,188.800 84.600 C 188.800 83.978,189.027 83.600,189.400 83.600 C 189.773 83.600,190.000 83.222,190.000 82.600 C 190.000 81.978,190.227 81.600,190.600 81.600 C 190.973 81.600,191.200 81.222,191.200 80.600 C 191.200 80.050,191.380 79.600,191.600 79.600 C 191.820 79.600,192.000 79.060,192.000 78.400 C 192.000 77.600,192.200 77.200,192.600 77.200 C 192.966 77.200,193.200 76.827,193.200 76.243 C 193.200 75.716,193.470 75.182,193.800 75.055 C 194.130 74.929,194.400 74.459,194.400 74.013 C 194.400 73.566,194.580 73.200,194.800 73.200 C 195.020 73.200,195.200 72.769,195.200 72.243 C 195.200 71.716,195.470 71.182,195.800 71.055 C 196.130 70.929,196.400 70.369,196.400 69.813 C 196.400 69.256,196.580 68.800,196.800 68.800 C 197.020 68.800,197.200 68.350,197.200 67.800 C 197.200 67.178,197.427 66.800,197.800 66.800 C 198.173 66.800,198.400 66.422,198.400 65.800 C 198.400 65.178,198.627 64.800,199.000 64.800 C 199.400 64.800,199.600 64.400,199.600 63.600 C 199.600 62.940,199.780 62.400,200.000 62.400 C 200.220 62.400,200.400 62.940,200.400 63.600 " stroke="none" fill="#929292"></path>
    </g>
</svg>
