<svg version="1.1" xmlns="http://www.w3.org/2000/svg" width="400" height="400" viewBox="0, 0, 400,400">
    <g>
        <path d="M194.400 11.600 C 194.400 11.820,193.860 12.000,193.200 12.000 C 192.400 12.000,192.000 12.200,192.000 12.600 C 192.000 12.973,191.622 13.200,191.000 13.200 C 190.450 13.200,190.000 13.393,190.000 13.629 C 190.000 14.182,188.982 15.200,188.429 15.200 C 188.193 15.200,188.000 15.470,188.000 15.800 C 188.000 16.130,187.773 16.400,187.496 16.400 C 186.821 16.400,185.810 18.027,185.943 18.900 C 186.007 19.314,185.795 19.600,185.425 19.600 C 185.025 19.600,184.800 19.960,184.800 20.600 C 184.800 21.222,184.573 21.600,184.200 21.600 C 183.827 21.600,183.600 21.978,183.600 22.600 C 183.600 23.150,183.420 23.600,183.200 23.600 C 182.980 23.600,182.800 24.140,182.800 24.800 C 182.800 25.547,182.611 25.962,182.300 25.900 C 182.019 25.844,181.745 26.281,181.673 26.900 C 181.601 27.530,181.302 28.000,180.973 28.000 C 180.628 28.000,180.400 28.398,180.400 29.000 C 180.400 29.550,180.220 30.000,180.000 30.000 C 179.780 30.000,179.600 30.450,179.600 31.000 C 179.600 31.622,179.373 32.000,179.000 32.000 C 178.605 32.000,178.400 32.395,178.400 33.157 C 178.400 33.811,178.142 34.413,177.807 34.542 C 177.446 34.680,177.313 35.030,177.469 35.434 C 177.625 35.842,177.468 36.242,177.062 36.469 C 176.698 36.673,176.400 37.191,176.400 37.620 C 176.400 38.049,176.130 38.400,175.800 38.400 C 175.427 38.400,175.200 38.778,175.200 39.400 C 175.200 39.950,175.020 40.400,174.800 40.400 C 174.580 40.400,174.400 40.940,174.400 41.600 C 174.400 42.400,174.200 42.800,173.800 42.800 C 173.427 42.800,173.200 43.178,173.200 43.800 C 173.200 44.422,172.973 44.800,172.600 44.800 C 172.227 44.800,172.000 45.178,172.000 45.800 C 172.000 46.350,171.820 46.800,171.600 46.800 C 171.380 46.800,171.200 47.250,171.200 47.800 C 171.200 48.422,170.973 48.800,170.600 48.800 C 170.200 48.800,170.000 49.200,170.000 50.000 C 170.000 50.800,169.800 51.200,169.400 51.200 C 169.027 51.200,168.800 51.578,168.800 52.200 C 168.800 52.750,168.620 53.200,168.400 53.200 C 168.180 53.200,168.000 53.650,168.000 54.200 C 168.000 54.750,167.768 55.200,167.485 55.200 C 167.202 55.200,166.942 55.574,166.908 56.032 C 166.873 56.490,166.610 57.147,166.322 57.493 C 166.035 57.840,165.856 58.455,165.925 58.861 C 166.002 59.318,165.811 59.600,165.425 59.600 C 165.025 59.600,164.800 59.960,164.800 60.600 C 164.800 61.222,164.573 61.600,164.200 61.600 C 163.827 61.600,163.600 61.978,163.600 62.600 C 163.600 63.150,163.420 63.600,163.200 63.600 C 162.980 63.600,162.800 64.140,162.800 64.800 C 162.800 65.547,162.611 65.962,162.300 65.900 C 162.019 65.844,161.745 66.281,161.673 66.900 C 161.601 67.530,161.302 68.000,160.973 68.000 C 160.628 68.000,160.400 68.398,160.400 69.000 C 160.400 69.550,160.220 70.000,160.000 70.000 C 159.780 70.000,159.600 70.450,159.600 71.000 C 159.600 71.622,159.373 72.000,159.000 72.000 C 158.605 72.000,158.400 72.395,158.400 73.157 C 158.400 73.811,158.142 74.413,157.807 74.542 C 157.446 74.680,157.313 75.030,157.469 75.434 C 157.625 75.842,157.468 76.242,157.062 76.469 C 156.698 76.673,156.400 77.191,156.400 77.620 C 156.400 78.049,156.130 78.400,155.800 78.400 C 155.427 78.400,155.200 78.778,155.200 79.400 C 155.200 79.950,155.020 80.400,154.800 80.400 C 154.580 80.400,154.400 80.940,154.400 81.600 C 154.400 82.400,154.200 82.800,153.800 82.800 C 153.427 82.800,153.200 83.178,153.200 83.800 C 153.200 84.422,152.973 84.800,152.600 84.800 C 152.227 84.800,152.000 85.178,152.000 85.800 C 152.000 86.350,151.820 86.800,151.600 86.800 C 151.380 86.800,151.200 87.250,151.200 87.800 C 151.200 88.422,150.973 88.800,150.600 88.800 C 150.200 88.800,150.000 89.200,150.000 90.000 C 150.000 90.800,149.800 91.200,149.400 91.200 C 149.027 91.200,148.800 91.578,148.800 92.200 C 148.800 92.750,148.620 93.200,148.400 93.200 C 148.180 93.200,148.000 93.650,148.000 94.200 C 148.000 94.750,147.768 95.200,147.485 95.200 C 147.202 95.200,146.942 95.574,146.908 96.032 C 146.873 96.490,146.610 97.147,146.322 97.493 C 146.035 97.840,145.856 98.455,145.925 98.861 C 146.002 99.318,145.811 99.600,145.425 99.600 C 145.025 99.600,144.800 99.960,144.800 100.600 C 144.800 101.222,144.573 101.600,144.200 101.600 C 143.827 101.600,143.600 101.978,143.600 102.600 C 143.600 103.150,143.420 103.600,143.200 103.600 C 142.980 103.600,142.800 104.140,142.800 104.800 C 142.800 105.547,142.611 105.962,142.300 105.900 C 142.019 105.844,141.745 106.281,141.673 106.900 C 141.601 107.530,141.302 108.000,140.973 108.000 C 140.628 108.000,140.400 108.398,140.400 109.000 C 140.400 109.550,140.220 110.000,140.000 110.000 C 139.780 110.000,139.600 110.450,139.600 111.000 C 139.600 111.622,139.373 112.000,139.000 112.000 C 138.605 112.000,138.400 112.395,138.400 113.157 C 138.400 113.811,138.142 114.413,137.807 114.542 C 137.460 114.675,137.315 115.033,137.457 115.404 C 137.591 115.754,137.424 116.254,137.084 116.519 C 136.745 116.784,136.397 117.360,136.310 117.800 C 136.223 118.240,135.938 118.555,135.676 118.500 C 135.408 118.444,135.200 118.837,135.200 119.400 C 135.200 119.950,135.020 120.400,134.800 120.400 C 134.580 120.400,134.400 120.670,134.400 121.000 C 134.400 121.483,133.778 121.600,131.200 121.600 C 128.622 121.600,128.000 121.717,128.000 122.200 C 128.000 122.691,127.311 122.800,124.200 122.800 C 121.933 122.800,120.400 122.961,120.400 123.200 C 120.400 123.431,119.133 123.600,117.400 123.600 C 115.000 123.600,114.400 123.720,114.400 124.200 C 114.400 124.691,113.711 124.800,110.600 124.800 C 107.432 124.800,106.800 124.903,106.800 125.421 C 106.800 125.936,106.272 126.028,103.720 125.961 C 101.687 125.907,100.588 126.036,100.487 126.339 C 100.386 126.641,99.101 126.800,96.767 126.800 C 93.863 126.800,93.200 126.912,93.200 127.400 C 93.200 127.883,92.578 128.000,90.000 128.000 C 88.133 128.000,86.800 128.167,86.800 128.400 C 86.800 128.637,85.333 128.800,83.200 128.800 C 80.267 128.800,79.600 128.911,79.600 129.400 C 79.600 129.883,78.978 130.000,76.400 130.000 C 73.822 130.000,73.200 130.117,73.200 130.600 C 73.200 131.089,72.536 131.200,69.624 131.200 C 67.657 131.200,65.936 131.380,65.800 131.600 C 65.664 131.820,64.213 132.000,62.576 132.000 C 60.197 132.000,59.600 132.120,59.600 132.600 C 59.600 133.091,58.911 133.200,55.800 133.200 C 52.689 133.200,52.000 133.309,52.000 133.800 C 52.000 134.280,51.403 134.400,49.024 134.400 C 47.387 134.400,45.936 134.580,45.800 134.800 C 45.664 135.020,43.943 135.200,41.976 135.200 C 39.064 135.200,38.400 135.311,38.400 135.800 C 38.400 136.283,37.778 136.400,35.200 136.400 C 32.558 136.400,32.000 136.510,32.000 137.028 C 32.000 137.563,31.460 137.638,28.399 137.528 C 25.716 137.433,24.798 137.527,24.799 137.900 C 24.800 138.317,20.384 138.713,18.700 138.447 C 18.535 138.421,18.445 138.625,18.500 138.900 C 18.572 139.260,17.679 139.432,15.300 139.516 C 13.485 139.580,12.000 139.805,12.000 140.016 C 12.000 140.227,11.364 140.400,10.587 140.400 C 9.701 140.400,9.089 140.623,8.945 141.000 C 8.818 141.330,8.273 141.600,7.734 141.600 C 7.194 141.600,6.857 141.768,6.983 141.973 C 7.110 142.178,6.671 142.667,6.007 143.059 C 5.343 143.452,4.800 144.004,4.800 144.286 C 4.800 144.569,4.595 144.800,4.344 144.800 C 3.672 144.800,2.827 146.068,2.813 147.100 C 2.805 147.628,2.552 148.000,2.200 148.000 C 1.767 148.000,1.600 148.444,1.600 149.600 C 1.600 150.756,1.433 151.200,1.000 151.200 C 0.114 151.200,0.114 159.115,1.000 159.455 C 1.391 159.605,1.600 160.228,1.600 161.243 C 1.600 162.360,1.769 162.800,2.200 162.800 C 2.540 162.800,2.800 163.159,2.800 163.629 C 2.800 164.514,3.666 165.600,4.371 165.600 C 4.607 165.600,4.800 165.870,4.800 166.200 C 4.800 166.530,5.070 166.800,5.400 166.800 C 5.730 166.800,6.000 166.993,6.000 167.229 C 6.000 167.782,7.018 168.800,7.571 168.800 C 7.807 168.800,8.000 168.994,8.000 169.231 C 8.000 169.791,10.209 172.000,10.769 172.000 C 11.006 172.000,11.200 172.194,11.200 172.431 C 11.200 172.991,13.409 175.200,13.969 175.200 C 14.206 175.200,14.400 175.393,14.400 175.629 C 14.400 176.182,15.418 177.200,15.971 177.200 C 16.207 177.200,16.400 177.394,16.400 177.631 C 16.400 178.191,18.609 180.400,19.169 180.400 C 19.406 180.400,19.600 180.594,19.600 180.831 C 19.600 181.391,21.809 183.600,22.369 183.600 C 22.606 183.600,22.800 183.793,22.800 184.029 C 22.800 184.582,23.818 185.600,24.371 185.600 C 24.607 185.600,24.800 185.870,24.800 186.200 C 24.800 186.530,25.070 186.800,25.400 186.800 C 25.730 186.800,26.000 186.993,26.000 187.229 C 26.000 187.782,27.018 188.800,27.571 188.800 C 27.807 188.800,28.000 188.994,28.000 189.231 C 28.000 189.791,30.209 192.000,30.769 192.000 C 31.006 192.000,31.200 192.194,31.200 192.431 C 31.200 192.991,33.409 195.200,33.969 195.200 C 34.206 195.200,34.400 195.393,34.400 195.629 C 34.400 196.182,35.418 197.200,35.971 197.200 C 36.207 197.200,36.400 197.394,36.400 197.631 C 36.400 198.191,38.609 200.400,39.169 200.400 C 39.406 200.400,39.600 200.594,39.600 200.831 C 39.600 201.391,41.809 203.600,42.369 203.600 C 42.606 203.600,42.800 203.793,42.800 204.029 C 42.800 204.582,43.818 205.600,44.371 205.600 C 44.607 205.600,44.800 205.870,44.800 206.200 C 44.800 206.530,45.070 206.800,45.400 206.800 C 45.730 206.800,46.000 206.993,46.000 207.229 C 46.000 207.782,47.018 208.800,47.571 208.800 C 47.807 208.800,48.000 208.994,48.000 209.231 C 48.000 209.791,50.209 212.000,50.769 212.000 C 51.006 212.000,51.200 212.194,51.200 212.431 C 51.200 212.991,53.409 215.200,53.969 215.200 C 54.206 215.200,54.400 215.393,54.400 215.629 C 54.400 216.182,55.418 217.200,55.971 217.200 C 56.207 217.200,56.400 217.394,56.400 217.631 C 56.400 218.191,58.609 220.400,59.169 220.400 C 59.406 220.400,59.600 220.594,59.600 220.831 C 59.600 221.391,61.809 223.600,62.369 223.600 C 62.606 223.600,62.800 223.793,62.800 224.029 C 62.800 224.582,63.818 225.600,64.371 225.600 C 64.607 225.600,64.800 225.870,64.800 226.200 C 64.800 226.530,65.070 226.800,65.400 226.800 C 65.730 226.800,66.000 226.993,66.000 227.229 C 66.000 227.782,67.018 228.800,67.571 228.800 C 67.807 228.800,68.000 228.994,68.000 229.231 C 68.000 229.791,70.209 232.000,70.769 232.000 C 71.006 232.000,71.200 232.194,71.200 232.431 C 71.200 232.991,73.409 235.200,73.969 235.200 C 74.206 235.200,74.400 235.393,74.400 235.629 C 74.400 236.182,75.418 237.200,75.971 237.200 C 76.207 237.200,76.400 237.394,76.400 237.631 C 76.400 238.191,78.609 240.400,79.169 240.400 C 79.406 240.400,79.600 240.594,79.600 240.831 C 79.600 241.391,81.809 243.600,82.369 243.600 C 82.606 243.600,82.800 243.793,82.800 244.029 C 82.800 244.582,83.818 245.600,84.371 245.600 C 84.607 245.600,84.800 245.870,84.800 246.200 C 84.800 246.530,85.070 246.800,85.400 246.800 C 85.730 246.800,86.000 246.993,86.000 247.229 C 86.000 247.782,87.018 248.800,87.571 248.800 C 87.807 248.800,88.000 249.070,88.000 249.400 C 88.000 249.730,88.180 250.000,88.400 250.000 C 88.620 250.000,88.800 250.450,88.800 251.000 C 88.800 251.550,88.620 252.000,88.400 252.000 C 88.161 252.000,88.000 253.533,88.000 255.800 C 88.000 258.911,87.891 259.600,87.400 259.600 C 86.921 259.600,86.800 260.191,86.800 262.520 C 86.800 264.178,86.602 265.638,86.342 265.898 C 86.056 266.184,85.916 267.636,85.967 269.778 C 86.036 272.648,85.949 273.200,85.425 273.200 C 84.910 273.200,84.800 273.766,84.800 276.400 C 84.800 278.978,84.683 279.600,84.200 279.600 C 83.711 279.600,83.600 280.267,83.600 283.200 C 83.600 285.333,83.437 286.800,83.200 286.800 C 82.967 286.800,82.800 288.133,82.800 290.000 C 82.800 292.578,82.683 293.200,82.200 293.200 C 81.712 293.200,81.600 293.862,81.600 296.757 C 81.600 299.550,81.471 300.364,81.000 300.545 C 80.540 300.721,80.400 301.479,80.400 303.787 C 80.400 305.529,80.231 306.800,80.000 306.800 C 79.761 306.800,79.600 308.333,79.600 310.600 C 79.600 313.711,79.491 314.400,79.000 314.400 C 78.521 314.400,78.400 314.996,78.400 317.367 C 78.400 319.329,78.236 320.388,77.917 320.494 C 77.575 320.608,77.468 321.726,77.550 324.328 C 77.649 327.460,77.573 328.000,77.033 328.000 C 76.508 328.000,76.400 328.548,76.400 331.200 C 76.400 333.778,76.283 334.400,75.800 334.400 C 75.311 334.400,75.200 335.067,75.200 338.000 C 75.200 340.133,75.037 341.600,74.800 341.600 C 74.567 341.600,74.400 342.933,74.400 344.800 C 74.400 347.378,74.283 348.000,73.800 348.000 C 73.312 348.000,73.200 348.662,73.200 351.557 C 73.200 354.350,73.071 355.164,72.600 355.345 C 72.140 355.521,72.000 356.279,72.000 358.587 C 72.000 360.329,71.831 361.600,71.600 361.600 C 71.363 361.600,71.200 363.067,71.200 365.200 C 71.200 368.133,71.089 368.800,70.600 368.800 C 69.714 368.800,69.714 376.715,70.600 377.055 C 70.991 377.205,71.200 377.828,71.200 378.843 C 71.200 379.699,71.380 380.400,71.600 380.400 C 71.820 380.400,72.000 380.810,72.000 381.311 C 72.000 382.204,73.223 383.600,74.005 383.600 C 74.222 383.600,74.400 383.793,74.400 384.029 C 74.400 384.582,75.418 385.600,75.971 385.600 C 76.207 385.600,76.400 385.778,76.400 385.995 C 76.400 386.777,77.796 388.000,78.689 388.000 C 79.190 388.000,79.600 388.180,79.600 388.400 C 79.600 388.649,81.933 388.800,85.800 388.800 C 89.667 388.800,92.000 388.649,92.000 388.400 C 92.000 388.180,92.456 388.000,93.013 388.000 C 93.569 388.000,94.129 387.730,94.255 387.400 C 94.382 387.070,94.916 386.800,95.443 386.800 C 96.027 386.800,96.400 386.566,96.400 386.200 C 96.400 385.827,96.778 385.600,97.400 385.600 C 97.950 385.600,98.400 385.420,98.400 385.200 C 98.400 384.980,98.850 384.800,99.400 384.800 C 100.022 384.800,100.400 384.573,100.400 384.200 C 100.400 383.800,100.800 383.600,101.600 383.600 C 102.407 383.600,102.800 383.401,102.800 382.992 C 102.800 382.544,103.062 382.451,103.800 382.636 C 104.556 382.826,104.800 382.730,104.800 382.243 C 104.800 381.824,105.148 381.600,105.800 381.600 C 106.422 381.600,106.800 381.373,106.800 381.000 C 106.800 380.627,107.178 380.400,107.800 380.400 C 108.350 380.400,108.800 380.220,108.800 380.000 C 108.800 379.780,109.256 379.600,109.813 379.600 C 110.369 379.600,110.929 379.330,111.055 379.000 C 111.182 378.670,111.716 378.400,112.243 378.400 C 112.769 378.400,113.200 378.195,113.200 377.944 C 113.200 377.325,114.438 376.428,115.313 376.413 C 115.704 376.406,116.129 376.130,116.255 375.800 C 116.382 375.470,116.916 375.200,117.443 375.200 C 117.969 375.200,118.400 375.020,118.400 374.800 C 118.400 374.580,118.850 374.400,119.400 374.400 C 120.022 374.400,120.400 374.173,120.400 373.800 C 120.400 373.400,120.800 373.200,121.600 373.200 C 122.400 373.200,122.800 373.000,122.800 372.600 C 122.800 372.227,123.178 372.000,123.800 372.000 C 124.350 372.000,124.800 371.820,124.800 371.600 C 124.800 371.380,125.166 371.200,125.613 371.200 C 126.059 371.200,126.529 370.930,126.655 370.600 C 126.782 370.270,127.316 370.000,127.843 370.000 C 128.427 370.000,128.800 369.766,128.800 369.400 C 128.800 369.000,129.200 368.800,130.000 368.800 C 130.660 368.800,131.200 368.620,131.200 368.400 C 131.200 368.180,131.650 368.000,132.200 368.000 C 132.822 368.000,133.200 367.773,133.200 367.400 C 133.200 367.064,133.557 366.800,134.013 366.800 C 134.459 366.800,134.929 366.530,135.055 366.200 C 135.182 365.870,135.716 365.600,136.243 365.600 C 136.769 365.600,137.200 365.420,137.200 365.200 C 137.200 364.980,137.470 364.800,137.800 364.800 C 138.130 364.800,138.400 364.530,138.400 364.200 C 138.400 363.827,138.778 363.600,139.400 363.600 C 140.052 363.600,140.400 363.376,140.400 362.957 C 140.400 362.469,140.644 362.374,141.409 362.566 C 142.116 362.744,142.488 362.637,142.652 362.210 C 142.780 361.874,143.316 361.600,143.843 361.600 C 144.427 361.600,144.800 361.366,144.800 361.000 C 144.800 360.627,145.178 360.400,145.800 360.400 C 146.350 360.400,146.800 360.220,146.800 360.000 C 146.800 359.780,147.250 359.600,147.800 359.600 C 148.422 359.600,148.800 359.373,148.800 359.000 C 148.800 358.625,149.179 358.400,149.813 358.400 C 150.369 358.400,150.929 358.130,151.055 357.800 C 151.182 357.470,151.716 357.200,152.243 357.200 C 152.769 357.200,153.200 357.020,153.200 356.800 C 153.200 356.580,153.650 356.400,154.200 356.400 C 154.822 356.400,155.200 356.173,155.200 355.800 C 155.200 355.427,155.578 355.200,156.200 355.200 C 156.750 355.200,157.200 355.020,157.200 354.800 C 157.200 354.580,157.656 354.400,158.213 354.400 C 158.769 354.400,159.329 354.130,159.455 353.800 C 159.582 353.470,160.116 353.200,160.643 353.200 C 161.227 353.200,161.600 352.966,161.600 352.600 C 161.600 352.270,161.870 352.000,162.200 352.000 C 162.530 352.000,162.800 351.820,162.800 351.600 C 162.800 351.380,163.250 351.200,163.800 351.200 C 164.422 351.200,164.800 350.973,164.800 350.600 C 164.800 350.227,165.178 350.000,165.800 350.000 C 166.422 350.000,166.800 349.773,166.800 349.400 C 166.800 349.027,167.178 348.800,167.800 348.800 C 168.350 348.800,168.800 348.620,168.800 348.400 C 168.800 348.180,169.256 348.000,169.813 348.000 C 170.369 348.000,170.929 347.730,171.055 347.400 C 171.182 347.070,171.716 346.800,172.243 346.800 C 172.827 346.800,173.200 346.566,173.200 346.200 C 173.200 345.827,173.578 345.600,174.200 345.600 C 174.750 345.600,175.200 345.420,175.200 345.200 C 175.200 344.980,175.650 344.800,176.200 344.800 C 176.822 344.800,177.200 344.573,177.200 344.200 C 177.200 343.800,177.600 343.600,178.400 343.600 C 179.207 343.600,179.600 343.401,179.600 342.992 C 179.600 342.544,179.862 342.451,180.600 342.636 C 181.356 342.826,181.600 342.730,181.600 342.243 C 181.600 341.824,181.948 341.600,182.600 341.600 C 183.222 341.600,183.600 341.373,183.600 341.000 C 183.600 340.627,183.978 340.400,184.600 340.400 C 185.150 340.400,185.600 340.220,185.600 340.000 C 185.600 339.780,185.870 339.600,186.200 339.600 C 186.530 339.600,186.800 339.330,186.800 339.000 C 186.800 338.627,187.178 338.400,187.800 338.400 C 188.422 338.400,188.800 338.173,188.800 337.800 C 188.800 337.400,189.200 337.200,190.000 337.200 C 190.660 337.200,191.200 337.020,191.200 336.800 C 191.200 336.580,191.650 336.400,192.200 336.400 C 192.822 336.400,193.200 336.173,193.200 335.800 C 193.200 335.427,193.578 335.200,194.200 335.200 C 194.750 335.200,195.200 335.020,195.200 334.800 C 195.200 334.580,195.566 334.400,196.013 334.400 C 196.459 334.400,196.929 334.130,197.055 333.800 C 197.187 333.458,197.783 333.200,198.443 333.200 C 199.205 333.200,199.600 332.995,199.600 332.600 C 199.600 332.270,199.780 332.000,200.000 332.000 C 200.220 332.000,200.400 332.270,200.400 332.600 C 200.400 333.000,200.800 333.200,201.600 333.200 C 202.400 333.200,202.800 333.400,202.800 333.800 C 202.800 334.173,203.178 334.400,203.800 334.400 C 204.350 334.400,204.800 334.568,204.800 334.773 C 204.800 334.979,205.295 335.204,205.900 335.273 C 206.519 335.345,206.956 335.619,206.900 335.900 C 206.842 336.191,207.209 336.400,207.776 336.400 C 208.313 336.400,208.864 336.580,209.000 336.800 C 209.136 337.020,209.687 337.200,210.224 337.200 C 210.825 337.200,211.200 337.431,211.200 337.800 C 211.200 338.173,211.578 338.400,212.200 338.400 C 212.822 338.400,213.200 338.627,213.200 339.000 C 213.200 339.373,213.578 339.600,214.200 339.600 C 214.750 339.600,215.200 339.780,215.200 340.000 C 215.200 340.220,215.470 340.400,215.800 340.400 C 216.130 340.400,216.400 340.670,216.400 341.000 C 216.400 341.366,216.773 341.600,217.357 341.600 C 217.884 341.600,218.423 341.882,218.555 342.228 C 218.715 342.645,219.065 342.770,219.598 342.601 C 220.168 342.420,220.400 342.528,220.400 342.973 C 220.400 343.403,220.777 343.600,221.600 343.600 C 222.400 343.600,222.800 343.800,222.800 344.200 C 222.800 344.573,223.178 344.800,223.800 344.800 C 224.350 344.800,224.800 344.980,224.800 345.200 C 224.800 345.420,225.250 345.600,225.800 345.600 C 226.422 345.600,226.800 345.827,226.800 346.200 C 226.800 346.566,227.173 346.800,227.757 346.800 C 228.284 346.800,228.818 347.070,228.945 347.400 C 229.071 347.730,229.631 348.000,230.187 348.000 C 230.744 348.000,231.200 348.180,231.200 348.400 C 231.200 348.620,231.650 348.800,232.200 348.800 C 232.822 348.800,233.200 349.027,233.200 349.400 C 233.200 349.773,233.578 350.000,234.200 350.000 C 234.822 350.000,235.200 350.227,235.200 350.600 C 235.200 351.003,235.603 351.200,236.424 351.200 C 237.137 351.200,237.544 351.367,237.400 351.600 C 237.256 351.833,237.663 352.000,238.376 352.000 C 239.049 352.000,239.600 352.178,239.600 352.395 C 239.600 353.177,240.996 354.400,241.889 354.400 C 242.390 354.400,242.800 354.580,242.800 354.800 C 242.800 355.020,243.250 355.200,243.800 355.200 C 244.422 355.200,244.800 355.427,244.800 355.800 C 244.800 356.173,245.178 356.400,245.800 356.400 C 246.350 356.400,246.800 356.580,246.800 356.800 C 246.800 357.020,247.256 357.200,247.813 357.200 C 248.369 357.200,248.929 357.470,249.055 357.800 C 249.182 358.130,249.716 358.400,250.243 358.400 C 250.827 358.400,251.200 358.634,251.200 359.000 C 251.200 359.373,251.578 359.600,252.200 359.600 C 252.750 359.600,253.200 359.780,253.200 360.000 C 253.200 360.220,253.650 360.400,254.200 360.400 C 254.822 360.400,255.200 360.627,255.200 361.000 C 255.200 361.375,255.579 361.600,256.213 361.600 C 256.769 361.600,257.328 361.869,257.454 362.197 C 257.609 362.601,257.993 362.717,258.642 362.554 C 259.355 362.375,259.600 362.478,259.600 362.957 C 259.600 363.376,259.948 363.600,260.600 363.600 C 261.222 363.600,261.600 363.827,261.600 364.200 C 261.600 364.573,261.978 364.800,262.600 364.800 C 263.150 364.800,263.600 364.980,263.600 365.200 C 263.600 365.420,263.870 365.600,264.200 365.600 C 264.530 365.600,264.800 365.870,264.800 366.200 C 264.800 366.566,265.173 366.800,265.757 366.800 C 266.284 366.800,266.818 367.070,266.945 367.400 C 267.071 367.730,267.541 368.000,267.987 368.000 C 268.434 368.000,268.800 368.180,268.800 368.400 C 268.800 368.620,269.340 368.800,270.000 368.800 C 270.800 368.800,271.200 369.000,271.200 369.400 C 271.200 369.773,271.578 370.000,272.200 370.000 C 272.750 370.000,273.200 370.232,273.200 370.515 C 273.200 370.798,273.602 371.060,274.094 371.097 C 274.586 371.134,275.051 371.352,275.127 371.582 C 275.204 371.812,275.682 372.000,276.191 372.000 C 276.699 372.000,277.218 372.270,277.345 372.600 C 277.471 372.930,278.011 373.200,278.545 373.200 C 279.078 373.200,279.618 373.470,279.745 373.800 C 279.871 374.130,280.341 374.400,280.787 374.400 C 281.234 374.400,281.600 374.580,281.600 374.800 C 281.600 375.020,282.031 375.200,282.557 375.200 C 283.084 375.200,283.618 375.470,283.745 375.800 C 283.871 376.130,284.296 376.406,284.687 376.413 C 285.562 376.428,286.800 377.325,286.800 377.944 C 286.800 378.195,287.231 378.400,287.757 378.400 C 288.284 378.400,288.818 378.670,288.945 379.000 C 289.071 379.330,289.631 379.600,290.187 379.600 C 290.744 379.600,291.200 379.780,291.200 380.000 C 291.200 380.220,291.650 380.400,292.200 380.400 C 292.822 380.400,293.200 380.627,293.200 381.000 C 293.200 381.366,293.573 381.600,294.157 381.600 C 294.684 381.600,295.218 381.869,295.344 382.198 C 295.473 382.534,295.973 382.753,296.487 382.698 C 297.042 382.638,297.361 382.796,297.300 383.100 C 297.238 383.411,297.653 383.600,298.400 383.600 C 299.200 383.600,299.600 383.800,299.600 384.200 C 299.600 384.573,299.978 384.800,300.600 384.800 C 301.150 384.800,301.600 384.980,301.600 385.200 C 301.600 385.420,302.050 385.600,302.600 385.600 C 303.222 385.600,303.600 385.827,303.600 386.200 C 303.600 386.600,304.000 386.800,304.800 386.800 C 305.600 386.800,306.000 387.000,306.000 387.400 C 306.000 387.773,306.378 388.000,307.000 388.000 C 307.550 388.000,308.000 388.180,308.000 388.400 C 308.000 388.649,310.333 388.800,314.200 388.800 C 318.067 388.800,320.400 388.649,320.400 388.400 C 320.400 388.180,320.810 388.000,321.311 388.000 C 322.204 388.000,323.600 386.777,323.600 385.995 C 323.600 385.778,323.793 385.600,324.029 385.600 C 324.582 385.600,325.600 384.582,325.600 384.029 C 325.600 383.793,325.778 383.600,325.995 383.600 C 326.777 383.600,328.000 382.204,328.000 381.311 C 328.000 380.810,328.180 380.400,328.400 380.400 C 328.620 380.400,328.800 379.680,328.800 378.800 C 328.800 377.644,328.967 377.200,329.400 377.200 C 329.895 377.200,330.000 376.467,330.000 373.000 C 330.000 369.533,329.895 368.800,329.400 368.800 C 328.911 368.800,328.800 368.133,328.800 365.200 C 328.800 363.067,328.637 361.600,328.400 361.600 C 328.169 361.600,328.000 360.329,328.000 358.587 C 328.000 356.279,327.860 355.521,327.400 355.345 C 326.929 355.164,326.800 354.350,326.800 351.557 C 326.800 348.662,326.688 348.000,326.200 348.000 C 325.717 348.000,325.600 347.378,325.600 344.800 C 325.600 342.933,325.433 341.600,325.200 341.600 C 324.963 341.600,324.800 340.133,324.800 338.000 C 324.800 335.067,324.689 334.400,324.200 334.400 C 323.717 334.400,323.600 333.778,323.600 331.200 C 323.600 328.548,323.492 328.000,322.967 328.000 C 322.427 328.000,322.351 327.460,322.450 324.328 C 322.532 321.726,322.425 320.608,322.083 320.494 C 321.764 320.388,321.600 319.329,321.600 317.367 C 321.600 314.996,321.479 314.400,321.000 314.400 C 320.509 314.400,320.400 313.711,320.400 310.600 C 320.400 308.333,320.239 306.800,320.000 306.800 C 319.769 306.800,319.600 305.529,319.600 303.787 C 319.600 301.479,319.460 300.721,319.000 300.545 C 318.529 300.364,318.400 299.550,318.400 296.757 C 318.400 293.862,318.288 293.200,317.800 293.200 C 317.317 293.200,317.200 292.578,317.200 290.000 C 317.200 288.133,317.033 286.800,316.800 286.800 C 316.563 286.800,316.400 285.333,316.400 283.200 C 316.400 280.267,316.289 279.600,315.800 279.600 C 315.317 279.600,315.200 278.978,315.200 276.400 C 315.200 274.533,315.033 273.200,314.800 273.200 C 314.565 273.200,314.400 271.816,314.400 269.849 C 314.400 267.358,314.246 266.370,313.800 266.000 C 313.366 265.640,313.200 264.686,313.200 262.551 C 313.200 260.195,313.079 259.600,312.600 259.600 C 312.109 259.600,312.000 258.911,312.000 255.800 C 312.000 253.533,311.839 252.000,311.600 252.000 C 311.380 252.000,311.200 251.550,311.200 251.000 C 311.200 250.450,311.380 250.000,311.600 250.000 C 311.820 250.000,312.000 249.730,312.000 249.400 C 312.000 249.070,312.209 248.800,312.464 248.800 C 312.970 248.800,315.200 246.459,315.200 245.928 C 315.200 245.748,315.393 245.600,315.629 245.600 C 316.182 245.600,317.200 244.582,317.200 244.029 C 317.200 243.793,317.348 243.600,317.528 243.600 C 318.059 243.600,320.400 241.370,320.400 240.864 C 320.400 240.609,320.609 240.400,320.864 240.400 C 321.370 240.400,323.600 238.059,323.600 237.528 C 323.600 237.348,323.793 237.200,324.029 237.200 C 324.582 237.200,325.600 236.182,325.600 235.629 C 325.600 235.393,325.794 235.200,326.031 235.200 C 326.268 235.200,326.988 234.674,327.631 234.031 C 328.274 233.388,328.800 232.668,328.800 232.431 C 328.800 232.194,328.994 232.000,329.231 232.000 C 329.468 232.000,330.188 231.474,330.831 230.831 C 331.474 230.188,332.000 229.468,332.000 229.231 C 332.000 228.994,332.209 228.800,332.464 228.800 C 332.970 228.800,335.200 226.459,335.200 225.928 C 335.200 225.748,335.393 225.600,335.629 225.600 C 335.864 225.600,336.314 225.343,336.629 225.029 C 336.943 224.714,337.200 224.264,337.200 224.029 C 337.200 223.793,337.348 223.600,337.528 223.600 C 338.059 223.600,340.400 221.370,340.400 220.864 C 340.400 220.609,340.609 220.400,340.864 220.400 C 341.370 220.400,343.600 218.059,343.600 217.528 C 343.600 217.348,343.793 217.200,344.029 217.200 C 344.264 217.200,344.714 216.943,345.029 216.629 C 345.343 216.314,345.600 215.864,345.600 215.629 C 345.600 215.393,345.794 215.200,346.031 215.200 C 346.268 215.200,346.988 214.674,347.631 214.031 C 348.274 213.388,348.800 212.668,348.800 212.431 C 348.800 212.194,348.994 212.000,349.231 212.000 C 349.468 212.000,350.188 211.474,350.831 210.831 C 351.474 210.188,352.000 209.468,352.000 209.231 C 352.000 208.994,352.209 208.800,352.464 208.800 C 352.970 208.800,355.200 206.459,355.200 205.928 C 355.200 205.748,355.393 205.600,355.629 205.600 C 356.182 205.600,357.200 204.582,357.200 204.029 C 357.200 203.793,357.348 203.600,357.528 203.600 C 358.059 203.600,360.400 201.370,360.400 200.864 C 360.400 200.609,360.609 200.400,360.864 200.400 C 361.370 200.400,363.600 198.059,363.600 197.528 C 363.600 197.348,363.793 197.200,364.029 197.200 C 364.582 197.200,365.600 196.182,365.600 195.629 C 365.600 195.393,365.794 195.200,366.031 195.200 C 366.591 195.200,368.800 192.991,368.800 192.431 C 368.800 192.194,368.994 192.000,369.231 192.000 C 369.791 192.000,372.000 189.791,372.000 189.231 C 372.000 188.994,372.194 188.800,372.431 188.800 C 372.991 188.800,375.200 186.591,375.200 186.031 C 375.200 185.794,375.393 185.600,375.629 185.600 C 376.182 185.600,377.200 184.582,377.200 184.029 C 377.200 183.793,377.348 183.600,377.528 183.600 C 378.059 183.600,380.400 181.370,380.400 180.864 C 380.400 180.609,380.609 180.400,380.864 180.400 C 381.370 180.400,383.600 178.059,383.600 177.528 C 383.600 177.348,383.793 177.200,384.029 177.200 C 384.582 177.200,385.600 176.182,385.600 175.629 C 385.600 175.393,385.794 175.200,386.031 175.200 C 386.591 175.200,388.800 172.991,388.800 172.431 C 388.800 172.194,388.994 172.000,389.231 172.000 C 389.791 172.000,392.000 169.791,392.000 169.231 C 392.000 168.994,392.194 168.800,392.431 168.800 C 392.991 168.800,395.200 166.591,395.200 166.031 C 395.200 165.794,395.393 165.600,395.629 165.600 C 396.389 165.600,397.200 164.485,397.200 163.441 C 397.200 162.702,397.364 162.488,397.800 162.655 C 398.271 162.836,398.400 162.544,398.400 161.292 C 398.400 160.363,398.650 159.490,399.000 159.200 C 399.876 158.473,399.876 151.200,399.000 151.200 C 398.567 151.200,398.400 150.756,398.400 149.600 C 398.400 148.444,398.233 148.000,397.800 148.000 C 397.448 148.000,397.195 147.628,397.187 147.100 C 397.173 146.068,396.328 144.800,395.656 144.800 C 395.405 144.800,395.200 144.607,395.200 144.371 C 395.200 143.838,394.190 142.800,393.671 142.800 C 393.459 142.800,393.182 142.530,393.055 142.200 C 392.929 141.870,392.479 141.600,392.055 141.600 C 391.632 141.600,391.182 141.330,391.055 141.000 C 390.911 140.623,390.299 140.400,389.413 140.400 C 388.636 140.400,388.000 140.220,388.000 140.000 C 388.000 139.767,386.667 139.600,384.800 139.600 C 382.222 139.600,381.600 139.483,381.600 139.000 C 381.600 138.517,380.978 138.400,378.400 138.400 C 376.106 138.400,375.200 138.258,375.201 137.900 C 375.201 137.536,374.195 137.400,371.501 137.400 C 368.753 137.400,367.826 137.271,367.900 136.900 C 367.973 136.533,367.147 136.400,364.800 136.400 C 362.222 136.400,361.600 136.283,361.600 135.800 C 361.600 135.311,360.933 135.200,358.000 135.200 C 355.867 135.200,354.400 135.037,354.400 134.800 C 354.400 134.567,353.067 134.400,351.200 134.400 C 348.622 134.400,348.000 134.283,348.000 133.800 C 348.000 133.309,347.311 133.200,344.200 133.200 C 341.089 133.200,340.400 133.091,340.400 132.600 C 340.400 132.120,339.800 132.000,337.400 132.000 C 335.667 132.000,334.400 131.831,334.400 131.600 C 334.400 131.361,332.867 131.200,330.600 131.200 C 327.489 131.200,326.800 131.091,326.800 130.600 C 326.800 130.117,326.178 130.000,323.600 130.000 C 321.022 130.000,320.400 129.883,320.400 129.400 C 320.400 128.911,319.733 128.800,316.800 128.800 C 314.667 128.800,313.200 128.637,313.200 128.400 C 313.200 128.167,311.867 128.000,310.000 128.000 C 307.422 128.000,306.800 127.883,306.800 127.400 C 306.800 126.912,306.137 126.800,303.233 126.800 C 300.899 126.800,299.614 126.641,299.513 126.339 C 299.412 126.036,298.313 125.907,296.280 125.961 C 293.728 126.028,293.200 125.936,293.200 125.421 C 293.200 124.903,292.568 124.800,289.400 124.800 C 286.289 124.800,285.600 124.691,285.600 124.200 C 285.600 123.720,285.000 123.600,282.600 123.600 C 280.867 123.600,279.600 123.431,279.600 123.200 C 279.600 122.961,278.067 122.800,275.800 122.800 C 272.689 122.800,272.000 122.691,272.000 122.200 C 272.000 121.717,271.378 121.600,268.800 121.600 C 266.222 121.600,265.600 121.483,265.600 121.000 C 265.600 120.670,265.420 120.400,265.200 120.400 C 264.980 120.400,264.800 119.950,264.800 119.400 C 264.800 118.813,264.593 118.441,264.300 118.500 C 264.019 118.556,263.745 118.119,263.673 117.500 C 263.596 116.830,263.306 116.400,262.930 116.400 C 262.472 116.400,262.378 116.143,262.564 115.400 C 262.749 114.662,262.656 114.400,262.208 114.400 C 261.799 114.400,261.600 114.007,261.600 113.200 C 261.600 112.400,261.400 112.000,261.000 112.000 C 260.627 112.000,260.400 111.622,260.400 111.000 C 260.400 110.450,260.220 110.000,260.000 110.000 C 259.780 110.000,259.600 109.550,259.600 109.000 C 259.600 108.398,259.372 108.000,259.027 108.000 C 258.698 108.000,258.399 107.530,258.327 106.900 C 258.255 106.281,257.981 105.844,257.700 105.900 C 257.391 105.962,257.200 105.553,257.200 104.833 C 257.200 104.192,257.012 103.604,256.782 103.527 C 256.552 103.451,256.334 102.986,256.297 102.494 C 256.260 102.002,255.998 101.600,255.715 101.600 C 255.432 101.600,255.200 101.150,255.200 100.600 C 255.200 100.050,255.020 99.600,254.800 99.600 C 254.580 99.600,254.400 99.262,254.400 98.849 C 254.400 98.436,254.130 97.874,253.800 97.600 C 253.470 97.326,253.200 96.674,253.200 96.151 C 253.200 95.572,252.965 95.200,252.600 95.200 C 252.227 95.200,252.000 94.822,252.000 94.200 C 252.000 93.650,251.820 93.200,251.600 93.200 C 251.380 93.200,251.200 92.750,251.200 92.200 C 251.200 91.578,250.973 91.200,250.600 91.200 C 250.200 91.200,250.000 90.800,250.000 90.000 C 250.000 89.200,249.800 88.800,249.400 88.800 C 249.027 88.800,248.800 88.422,248.800 87.800 C 248.800 87.250,248.620 86.800,248.400 86.800 C 248.180 86.800,248.000 86.350,248.000 85.800 C 248.000 85.178,247.773 84.800,247.400 84.800 C 247.027 84.800,246.800 84.422,246.800 83.800 C 246.800 83.178,246.573 82.800,246.200 82.800 C 245.800 82.800,245.600 82.400,245.600 81.600 C 245.600 80.940,245.420 80.400,245.200 80.400 C 244.980 80.400,244.800 79.950,244.800 79.400 C 244.800 78.778,244.573 78.400,244.200 78.400 C 243.827 78.400,243.600 78.022,243.600 77.400 C 243.600 76.748,243.376 76.400,242.957 76.400 C 242.470 76.400,242.374 76.156,242.564 75.400 C 242.749 74.662,242.656 74.400,242.208 74.400 C 241.799 74.400,241.600 74.007,241.600 73.200 C 241.600 72.400,241.400 72.000,241.000 72.000 C 240.627 72.000,240.400 71.622,240.400 71.000 C 240.400 70.450,240.220 70.000,240.000 70.000 C 239.780 70.000,239.600 69.550,239.600 69.000 C 239.600 68.398,239.372 68.000,239.027 68.000 C 238.698 68.000,238.399 67.530,238.327 66.900 C 238.255 66.281,237.981 65.844,237.700 65.900 C 237.391 65.962,237.200 65.553,237.200 64.833 C 237.200 64.192,237.012 63.604,236.782 63.527 C 236.552 63.451,236.334 62.986,236.297 62.494 C 236.260 62.002,235.998 61.600,235.715 61.600 C 235.432 61.600,235.200 61.150,235.200 60.600 C 235.200 60.050,235.020 59.600,234.800 59.600 C 234.580 59.600,234.400 59.262,234.400 58.849 C 234.400 58.436,234.130 57.874,233.800 57.600 C 233.470 57.326,233.200 56.674,233.200 56.151 C 233.200 55.572,232.965 55.200,232.600 55.200 C 232.227 55.200,232.000 54.822,232.000 54.200 C 232.000 53.650,231.820 53.200,231.600 53.200 C 231.380 53.200,231.200 52.750,231.200 52.200 C 231.200 51.578,230.973 51.200,230.600 51.200 C 230.200 51.200,230.000 50.800,230.000 50.000 C 230.000 49.200,229.800 48.800,229.400 48.800 C 229.027 48.800,228.800 48.422,228.800 47.800 C 228.800 47.250,228.620 46.800,228.400 46.800 C 228.180 46.800,228.000 46.350,228.000 45.800 C 228.000 45.178,227.773 44.800,227.400 44.800 C 227.027 44.800,226.800 44.422,226.800 43.800 C 226.800 43.178,226.573 42.800,226.200 42.800 C 225.800 42.800,225.600 42.400,225.600 41.600 C 225.600 40.940,225.420 40.400,225.200 40.400 C 224.980 40.400,224.800 39.950,224.800 39.400 C 224.800 38.778,224.573 38.400,224.200 38.400 C 223.827 38.400,223.600 38.022,223.600 37.400 C 223.600 36.748,223.376 36.400,222.957 36.400 C 222.470 36.400,222.374 36.156,222.564 35.400 C 222.749 34.662,222.656 34.400,222.208 34.400 C 221.799 34.400,221.600 34.007,221.600 33.200 C 221.600 32.400,221.400 32.000,221.000 32.000 C 220.627 32.000,220.400 31.622,220.400 31.000 C 220.400 30.450,220.220 30.000,220.000 30.000 C 219.780 30.000,219.600 29.550,219.600 29.000 C 219.600 28.398,219.372 28.000,219.027 28.000 C 218.698 28.000,218.399 27.530,218.327 26.900 C 218.255 26.281,217.981 25.844,217.700 25.900 C 217.391 25.962,217.200 25.553,217.200 24.833 C 217.200 24.192,217.012 23.604,216.782 23.527 C 216.552 23.451,216.334 22.986,216.297 22.494 C 216.260 22.002,215.998 21.600,215.715 21.600 C 215.432 21.600,215.200 21.150,215.200 20.600 C 215.200 20.050,215.020 19.600,214.800 19.600 C 214.580 19.600,214.394 19.285,214.387 18.900 C 214.371 18.076,213.063 16.400,212.436 16.400 C 212.196 16.400,212.000 16.207,212.000 15.971 C 212.000 15.418,210.982 14.400,210.429 14.400 C 210.193 14.400,210.000 14.130,210.000 13.800 C 210.000 13.427,209.622 13.200,209.000 13.200 C 208.378 13.200,208.000 12.973,208.000 12.600 C 208.000 12.200,207.600 12.000,206.800 12.000 C 206.140 12.000,205.600 11.820,205.600 11.600 C 205.600 11.352,203.467 11.200,200.000 11.200 C 196.533 11.200,194.400 11.352,194.400 11.600 " stroke="none" fill="#FFCE22"></path>
    </g>
</svg>
